<?xml version="1.0" standalone="no"?>
<!DOCTYPE svg PUBLIC "-//W3C//DTD SVG 1.1//EN" "http://www.w3.org/Graphics/SVG/1.1/DTD/svg11.dtd" >
<svg xmlns="http://www.w3.org/2000/svg">
<metadata></metadata>
<defs>
<font id="quadrat_serialregular" horiz-adv-x="649" >
<font-face units-per-em="1000" ascent="800" descent="-200" />
<missing-glyph horiz-adv-x="290" />
<glyph unicode="&#xd;" horiz-adv-x="290" />
<glyph unicode=" "  horiz-adv-x="290" />
<glyph unicode="&#x09;" horiz-adv-x="290" />
<glyph unicode="&#xa0;" horiz-adv-x="290" />
<glyph unicode="!" horiz-adv-x="241" d="M43 65q0 33 23 56t55 23q31 0 54 -23.5t23 -55.5t-23 -54.5t-55 -22.5t-54.5 23t-22.5 54zM74 186l-28 533h145l-26 -533h-91z" />
<glyph unicode="&#x22;" horiz-adv-x="396" d="M64 444l-25 24q31 28 44 54q11 23 11 42v10q-37 15 -51 30.5t-14 41.5q0 35 24 60t58 25t55 -26t21 -70q0 -47 -29 -93q-16 -26 -32 -43q-27 -28 -62 -55zM244 444l-25 24q33 29 45 54q11 21 11 42v10q-37 15 -51.5 31t-14.5 41q0 35 24.5 60t58.5 25t55 -26.5t21 -69.5 q0 -45 -30 -93q-18 -29 -31 -43q-22 -25 -63 -55z" />
<glyph unicode="#" horiz-adv-x="632" d="M162 224h-115l11 50h115l36 172h-115l10 50h116l44 210h50l-45 -210h105l44 210h49l-44 -210h115l-10 -50h-115l-37 -172h115l-10 -50h-115l-45 -210h-49l44 210h-104l-45 -210h-49zM259 446l-37 -172h105l36 172h-104z" />
<glyph unicode="$" horiz-adv-x="530" d="M43 11l-40 150q58 -39 116 -58q54 -18 117 -24v228l-28 11q-82 32 -123 66q-67 58 -67 138q0 54 33 105q27 39 68 63q27 15 50.5 22t68.5 12v90h78v-85q46 -1 125 -20v-133q-18 14 -51 36q-34 21 -74 25v-216q53 -22 78 -36q116 -68 116 -176q0 -75 -56 -136.5 t-140 -77.5v-99h-79v88q-57 0 -97 5q-45 6 -95 22zM314 268v-172q67 30 67 90q0 30 -21 51q-15 13 -46 31zM237 451v183q-45 -15 -65 -35t-20 -50q0 -61 85 -98z" />
<glyph unicode="%" horiz-adv-x="751" d="M35 541q0 1 -0.5 4.5t-0.5 5.5q0 73 52 125.5t124 52.5q73 0 124 -51t51 -123q0 -73 -51.5 -124.5t-124.5 -51.5q-67 0 -118 47.5t-56 114.5zM109 0h-80l614 721h80zM372 142q-1 5 -1 16q0 75 51.5 127t125.5 52q70 0 121.5 -51.5t51.5 -121.5q0 -72 -51 -123.5 t-123 -51.5q-68 0 -118 43.5t-57 109.5zM117 560q0 -1 0.5 -5.5t0.5 -6.5q3 -55 29 -89t66 -34q41 0 63.5 31t22.5 88q0 138 -93 138q-41 0 -65 -32.5t-24 -89.5zM539 294q-72 0 -83 -83q-2 -18 -2 -25q0 -71 27 -113t73 -42q38 0 61.5 29.5t23.5 77.5q0 72 -27.5 114 t-72.5 42z" />
<glyph unicode="&#x26;" horiz-adv-x="840" d="M171 417q-47 49 -66.5 84.5t-19.5 73.5q0 70 52.5 115.5t132.5 45.5q77 0 124.5 -39.5t47.5 -104.5q0 -48 -24 -88q-20 -32 -72 -78q109 -104 199 -182q139 -120 195 -157t172 -87h-171q-48 0 -69.5 4t-50.5 19q-47 24 -109 80q-15 -22 -37 -48q-65 -72 -195 -72 q-110 0 -182.5 59.5t-72.5 149.5q0 55 30 104q20 31 42.5 54.5t73.5 66.5zM455 148q-99 87 -205 191q-42 -35 -60 -59q-26 -37 -26 -78q0 -55 40.5 -89t104.5 -34q70 0 117 41q18 16 29 28zM248 522q1 -1 8 -9t13 -14q29 27 45 46q19 25 19 49q0 26 -19 44t-46 18 q-25 0 -44 -18t-19 -42q0 -26 21 -50q8 -10 22 -24z" />
<glyph unicode="'" horiz-adv-x="215" d="M64 444l-25 24q31 28 44 54q11 23 11 42v10q-37 15 -51 30.5t-14 41.5q0 35 24 60t58 25t55 -26t21 -70q0 -47 -29 -93q-16 -26 -32 -43q-27 -28 -62 -55z" />
<glyph unicode="(" horiz-adv-x="257" d="M183 768l63 -3q-46 -104 -67 -182q-37 -138 -37 -268q0 -132 37 -267q22 -81 67 -184l-63 -2q-43 60 -73 128q-81 183 -81 325q0 140 81 324q30 69 73 129z" />
<glyph unicode=")" horiz-adv-x="257" d="M74 -138l-63 2q43 101 66 184q39 140 39 267t-39 267q-23 82 -66 183l63 1q65 -91 109.5 -220.5t44.5 -230.5q0 -102 -44.5 -231.5t-109.5 -221.5z" />
<glyph unicode="*" horiz-adv-x="345" d="M162 563v-31q0 -50 -11 -70q-12 -28 -45 -28q-24 0 -39.5 15.5t-15.5 39.5q0 22 9 33t35 21q26 9 67 20zM161 577q-57 -19 -85 -19q-27 0 -42.5 13t-15.5 37q0 23 15.5 39t37.5 16q19 0 33 -11t34 -41q11 -18 23 -34zM173 586q-56 66 -56 98q0 19 17 33.5t39 14.5 t37 -14.5t15 -36.5t-29 -63q-8 -9 -23 -32zM181 574l15 22l15 20q32 43 65 43q20 0 34 -14t14 -35q0 -25 -15.5 -40.5t-41.5 -15.5q-19 0 -86 20zM177 562q11 -3 26 -8.5t19 -6.5q38 -11 53.5 -25t15.5 -36q0 -21 -17 -37.5t-39 -16.5q-45 0 -53 58q-4 40 -5 72z" />
<glyph unicode="+" d="M264 299h-192v122h192v192h121v-192h190v-122h-191v-191h-120v191z" />
<glyph unicode="," horiz-adv-x="215" d="M64 -135l-25 23q33 28 44 55q11 20 11 41v11q-37 14 -51 30t-14 42q0 34 24 58.5t58 24.5t55 -26t21 -70q0 -47 -29 -93q-11 -18 -32 -41q-19 -22 -62 -55z" />
<glyph unicode="-" horiz-adv-x="419" d="M299 219h-277l100 111h277z" />
<glyph unicode="." horiz-adv-x="216" d="M29 67q0 32 23 55t55 23q33 0 56.5 -23t23.5 -55t-23.5 -56t-55.5 -24t-55.5 23.5t-23.5 56.5z" />
<glyph unicode="/" horiz-adv-x="596" d="M78 -9h-100l540 738h99z" />
<glyph unicode="0" d="M22 360q0 106 40 194q25 53 49 81q43 54 92.5 77.5t120.5 23.5t120 -23.5t92 -77.5q91 -113 91 -275q0 -102 -41 -192q-22 -47 -50 -82q-44 -54 -93 -77.5t-119 -23.5q-71 0 -120.5 23.5t-92.5 77.5q-89 110 -89 274zM309 646q-63 0 -105.5 -63.5t-47.5 -167.5 q-1 -10 -1 -29q0 -126 55 -219t129 -93q68 0 111 73t43 189q0 125 -55 217.5t-129 92.5z" />
<glyph unicode="1" d="M272 562h-106q93 49 133 80t106 105v-659q0 -21 11 -45q13 -21 42 -43h-237q31 24 41 43q10 20 10 42v477z" />
<glyph unicode="2" d="M523 0h-493q49 62 79 105q67 94 139 205q113 175 113 232q0 83 -104 83q-39 0 -81 -14q-32 -10 -98 -47l57 141q80 24 149 24q108 0 166 -42t58 -121q0 -45 -21.5 -90.5t-92.5 -149.5q-25 -37 -60 -83q-29 -39 -117 -149q89 -5 132 -5q76 0 122 9t118 39z" />
<glyph unicode="3" d="M107 5l-46 129q105 -53 183 -53q85 0 140.5 42t55.5 106q0 52 -41 86t-105 34q-40 0 -100 -17v107q34 -7 50 -7q69 0 114.5 32.5t45.5 82.5q0 38 -36 63t-91 25q-23 0 -59 -9q-44 -10 -111 -43l48 124q32 9 40 11q51 12 103 12q109 0 174 -45t65 -119q0 -53 -41 -101 q-27 -30 -83 -56q75 -13 117.5 -60.5t42.5 -119.5q0 -107 -88 -173t-230 -66h-39q-43 0 -109 15z" />
<glyph unicode="4" d="M344 135h-368l342 586h158v-491q7 -1 22 -1q45 0 69 7t72 34l-54 -136h-108v-46q0 -23 12 -45q8 -19 39 -43h-233q27 22 38 43q11 24 11 45v47zM343 231v365l-199 -359q72 -7 126 -7q49 0 73 1z" />
<glyph unicode="5" d="M126 0l-56 139q61 -36 112 -46q41 -9 79 -9q79 0 133.5 43.5t54.5 107.5q0 62 -50 98.5t-134 36.5q-51 0 -85.5 -9t-75.5 -33l21 393h386v-139q-30 17 -32 18q-57 30 -151 30q-32 0 -89 -5l-9 -180q74 17 113 17q100 0 165 -61.5t65 -156.5q0 -113 -89 -185t-229 -72 q-56 0 -129 13z" />
<glyph unicode="6" d="M535 744l-58 -81q-6 -2 -18.5 -5.5t-17.5 -5.5q-84 -25 -149 -84q-61 -58 -88 -117q-36 -79 -36 -167q0 -92 47.5 -153t119.5 -61q62 0 104.5 48.5t42.5 119.5q0 70 -46 116t-116 46q-43 0 -122 -34l98 110q57 9 82 9q96 0 161.5 -69t65.5 -170q0 -112 -78.5 -188.5 t-193.5 -76.5q-131 0 -210.5 86t-79.5 227q0 151 106 275q69 81 176 127q50 21 92.5 31t117.5 17z" />
<glyph unicode="7" d="M66 574l59 147h464l-245 -593q-25 -63 -25 -88q0 -14 11 -40h-188l280 615q-83 13 -136 13q-15 0 -49 -2q-62 -4 -92.5 -13.5t-78.5 -38.5z" />
<glyph unicode="8" d="M186 374q-5 2 -10.5 5t-11.5 6l-8 4q-43 23 -68.5 65t-25.5 90q0 83 74 135.5t190 52.5q121 0 193.5 -51.5t72.5 -136.5q0 -112 -125 -157q47 -23 67 -37.5t42 -39.5q42 -47 42 -115q0 -93 -77 -154.5t-195 -61.5q-61 0 -136 16q-83 18 -133 71.5t-50 125.5q0 55 32 101 q20 28 46.5 45t80.5 36zM277 329l-10.5 3.5t-12.5 3.5q-46 -13 -65 -30t-30 -52q-7 -21 -7 -38q0 -64 54 -109t130 -45q62 0 107 36t45 86q0 58 -87 95q-35 15 -60 25q-14 6 -29 11.5t-23.5 8.5t-11.5 5zM310 452l59 -22l23 -9q33 17 48.5 32t25.5 37q9 21 9 42 q0 49 -47.5 85.5t-112.5 36.5q-53 0 -90 -26t-37 -63q0 -68 122 -113z" />
<glyph unicode="9" d="M107 -19l57 81q9 2 20.5 5t16.5 4q86 28 149 85q58 51 87 118q37 81 37 166q0 92 -47.5 152.5t-119.5 60.5q-62 0 -105 -48t-43 -119q0 -69 46 -115.5t116 -46.5q44 0 122 33l-98 -108q-53 -10 -81 -10q-96 0 -162 69.5t-66 170.5q0 111 79 188t193 77q131 0 211 -86.5 t80 -227.5q0 -150 -106 -274q-72 -83 -177 -128q-50 -21 -92 -30.5t-117 -16.5z" />
<glyph unicode=":" horiz-adv-x="224" d="M37 67q0 32 22.5 55t55.5 23t56.5 -23t23.5 -55t-23 -56t-55 -24q-34 0 -57 23.5t-23 56.5zM36 418q0 33 23 56t57 23q32 0 55.5 -23t23.5 -56q0 -32 -23 -54t-55 -22q-34 0 -57.5 22t-23.5 54z" />
<glyph unicode=";" horiz-adv-x="224" d="M74 -135l-25 23q30 25 44 55q11 22 11 41q0 6 -1 11q-37 14 -51 30t-14 42q0 34 24 58.5t58 24.5t55 -26t21 -70q0 -46 -30 -93q-10 -17 -30 -41q-20 -22 -62 -55zM36 419q0 34 23 57t57 23q32 0 55 -23t23 -57q0 -32 -23 -54t-55 -22q-34 0 -57 22t-23 54z" />
<glyph unicode="&#x3c;" horiz-adv-x="246" d="M143 426h82q-21 -30 -55 -81q-35 -53 -35 -88q0 -16 3 -28q8 -25 23.5 -51t61.5 -87h-98q-8 10 -24.5 29.5t-23.5 27.5q-55 64 -55 104q0 21 15 45q23 38 106 129z" />
<glyph unicode="=" d="M576 225h-505v101h505v-101zM576 395h-505v101h505v-101z" />
<glyph unicode="&#x3e;" horiz-adv-x="246" d="M104 91h-82q10 16 28.5 43t26.5 38q34 51 34 89q0 15 -3 27q-8 25 -23.5 50.5t-60.5 87.5h97q13 -15 49 -57q55 -65 55 -104q0 -20 -15 -46q-18 -31 -106 -128z" />
<glyph unicode="?" horiz-adv-x="410" d="M66 67q0 32 23.5 55t55.5 23t54.5 -23t22.5 -55t-23 -55.5t-54 -23.5q-32 0 -55.5 23.5t-23.5 55.5zM-22 605l66 110q72 19 121 19q98 0 160.5 -52.5t62.5 -134.5q0 -87 -81 -158l-53 -46q-70 -60 -70 -129q0 -16 1 -26h-92q-1 14 -1 37q0 33 12 64q16 39 39 61 q2 3 7.5 8.5t15 14.5t16.5 17q70 71 70 133q0 50 -35 84.5t-86 34.5q-33 0 -50 -4q-40 -8 -103 -33z" />
<glyph unicode="@" horiz-adv-x="841" d="M454 230q-5 -18 -20 -36q-55 -64 -131 -30q-84 38 -77 178q2 24 4 35q15 93 67 155q53 59 110.5 58t84.5 -53q1 -1 2.5 -5t2.5 -5l9 57l49 -1l-38 -215l-14 -87q-6 -38 2 -62q5 -18 21.5 -26.5t34.5 -1.5q24 8 57 46q39 48 52 134q22 150 -66 241.5t-229 70.5 q-119 -18 -194 -121t-62 -242q3 -32 10 -56q19 -77 66.5 -132.5t108.5 -80.5t133 -19t138 47q24 14 49 36q32 27 54 57l20 -36q-16 -20 -25 -29q-115 -121 -266 -121q-155 -1 -257.5 114t-91.5 285q7 114 71 201q96 129 246 147q167 19 270 -91.5t75 -280.5 q-16 -93 -62.5 -150t-101.5 -65q-46 -7 -76 19t-26 65zM284 291q1 -37 13 -62q14 -30 46.5 -35.5t56.5 18.5q25 24 47 86q9 27 18 75l2 10l7 42q5 30 1 59q-6 36 -34 52.5t-58 3.5q-27 -11 -45 -35.5t-35 -75.5q-10 -29 -13 -49q-8 -43 -6 -89z" />
<glyph unicode="A" horiz-adv-x="741" d="M189 0h-225q39 23 57 43q17 17 29 45l224 540q7 17 7 39t-22 54h180l252 -633q8 -24 28 -45q20 -22 57 -43h-261q36 28 36 59q0 14 -5 29l-64 168h-257l-65 -168q-5 -15 -5 -31q0 -29 34 -57zM452 342l-95 258l-99 -258h194z" />
<glyph unicode="B" horiz-adv-x="619" d="M234 0h-212q29 23 40 43q10 20 10 45l2 543q0 27 -9 44.5t-36 45.5h221q119 0 187 -29q43 -18 68.5 -55t25.5 -83q0 -53 -37 -92q-28 -28 -78 -45q68 -10 106 -39q69 -52 69 -143q0 -80 -50 -139q-45 -54 -113 -75t-194 -21zM203 354v-258q50 -12 89 -12q72 0 117.5 39 t45.5 101q0 41 -25 74.5t-65 45.5q-47 13 -102 13q-17 0 -60 -3zM204 641v-214q21 -3 32 -3q85 0 120 31q35 33 35 79q0 52 -35.5 81t-99.5 29q-14 0 -52 -3z" />
<glyph unicode="C" horiz-adv-x="714" d="M626 717v-129q-18 13 -24 16q-69 41 -161 41q-124 0 -203 -78.5t-79 -202.5q0 -120 76 -199q41 -42 103 -67.5t125 -25.5q70 0 158 34q57 23 108 59l-86 -165q-109 -18 -181 -18q-95 0 -179 26q-116 37 -185 129.5t-69 211.5q0 81 37.5 158.5t101.5 130.5q120 98 309 98 q60 0 149 -19z" />
<glyph unicode="D" horiz-adv-x="735" d="M294 0h-285q29 26 36 43q11 19 11 45l3 542q0 23 -9 45q-9 17 -38 46h285q191 0 300.5 -93.5t109.5 -257.5q0 -177 -118 -279q-103 -91 -295 -91zM191 626v-530q47 -7 89 -7q134 0 211 74.5t77 204.5q0 126 -79.5 196.5t-222.5 70.5q-39 0 -75 -9z" />
<glyph unicode="E" horiz-adv-x="544" d="M489 0h-467q30 25 40 43q9 23 9 45l1 542q0 28 -7.5 44.5t-33.5 46.5h420v-150q-37 55 -83 55h-39h-125v-195h183v-127q-21 24 -42.5 32.5t-60.5 8.5h-80v-247q69 -10 117 -10q36 0 54 2q55 4 86.5 16t79.5 45z" />
<glyph unicode="F" horiz-adv-x="450" d="M258 0h-237q29 23 40 43q10 20 10 45v541q0 26 -9 51q-6 13 -27 41h415v-149q-22 34 -45.5 45t-76.5 11h-124v-196h181v-128q-19 23 -33 29q-21 12 -71 12h-77v-259q0 -50 54 -86z" />
<glyph unicode="G" horiz-adv-x="781" d="M629 719v-132q-7 5 -15.5 10.5t-10.5 6.5q-69 41 -153 41q-127 0 -207 -78t-80 -202q0 -131 86 -210.5t227 -79.5q60 0 107 18v197q0 45 -42 87h175v-362q-12 -2 -29.5 -6.5t-23.5 -5.5q-101 -21 -207 -21q-120 0 -201 34q-103 44 -164.5 134.5t-61.5 199.5 q0 86 39.5 164t110.5 134q118 90 298 90q62 0 152 -19z" />
<glyph unicode="H" horiz-adv-x="755" d="M253 0h-234q29 22 40.5 42t11.5 46v542q0 29 -8.5 47t-36.5 44h220q-43 -47 -43 -91v-194h349v194q0 47 -44 91h221q-28 -28 -37 -45t-9 -46v-542q0 -50 52 -88h-233q27 21 40 43q10 19 10 45v256h-350v-256q0 -48 51 -88z" />
<glyph unicode="I" horiz-adv-x="277" d="M257 0h-235q50 37 50 88v542q0 30 -9.5 49.5t-35.5 41.5h224q-26 -22 -35.5 -41.5t-9.5 -49.5v-542q0 -50 51 -88z" />
<glyph unicode="J" horiz-adv-x="277" d="M-32 -241q43 42 55 59q49 71 49 182v630q0 27 -8 45q-6 16 -32 46h211q-27 -34 -31 -46q-9 -19 -9 -45v-680q0 -43 -14.5 -73t-49.5 -56q-33 -25 -69 -38t-102 -24z" />
<glyph unicode="K" horiz-adv-x="669" d="M256 0h-237q32 24 42 43q10 20 10 45l1 542q0 27 -8 45t-33 46h223q-31 -31 -38 -46q-11 -22 -11 -45v-542q0 -21 11 -45q12 -22 40 -43zM250 325l-37 54l196 251q19 25 19 48q0 19 -23 43h223l-276 -325q125 -180 226 -282q34 -34 67 -61q38 -32 81 -53h-126h-42 q-19 0 -41 11q-50 19 -148 152z" />
<glyph unicode="L" horiz-adv-x="517" d="M490 0h-467q49 40 49 88v542q0 28 -8 47.5t-30 43.5h214q-26 -30 -35.5 -49t-9.5 -43v-531q68 -9 112 -9q37 0 66 4q56 6 86 17t75 41z" />
<glyph unicode="M" horiz-adv-x="997" d="M201 0h-209q34 23 46 43q13 20 17 43l80 544q1 5 1 13q0 22 -7 37t-31 41h205l207 -506l195 506h197q-20 -26 -26 -41.5t-6 -37.5q0 -8 1 -12l65 -542q3 -23 18 -45q14 -20 50 -43h-243q23 21 31 37.5t8 41.5v9l-49 477l-227 -584q-28 11 -48 30q-32 27 -66 108l-187 446 l-64 -477v-12q0 -24 9 -40t33 -36z" />
<glyph unicode="N" horiz-adv-x="764" d="M226 0h-203q30 25 40 43q9 19 9 45l2 542q0 26 -8 45q-8 17 -35 46h157l404 -511v420q0 26 -8 45q-8 18 -34 46h183q-25 -30 -33 -47.5t-8 -43.5v-662q-38 9 -76 33q-27 17 -57 45q-17 17 -42 49q-24 28 -27 33l-317 397v-439q0 -22 11 -44q9 -18 42 -42z" />
<glyph unicode="O" horiz-adv-x="836" d="M29 364q0 163 111.5 268.5t282.5 105.5q170 0 276.5 -104t106.5 -271q0 -171 -107.5 -276t-284.5 -105q-170 0 -277.5 106.5t-107.5 275.5zM164 382q0 -4 0.5 -10t0.5 -10q8 -129 85 -212t189 -83q103 0 168 77.5t65 199.5q0 130 -76 220t-186 90q-111 0 -178.5 -74.5 t-67.5 -197.5z" />
<glyph unicode="P" horiz-adv-x="547" d="M254 0h-230q28 24 38 43q9 19 9 45l1 542q0 29 -7 45q-10 19 -34 46h247q130 0 200.5 -49t70.5 -138q0 -87 -70.5 -142t-181.5 -55q-37 0 -71 13q87 8 137.5 51.5t50.5 110.5q0 58 -41 94t-109 36q-23 0 -37 -1l-22 -2v-551q0 -23 10 -45q11 -21 39 -43z" />
<glyph unicode="Q" horiz-adv-x="837" d="M643 40q96 -75 128 -96q92 -58 167 -58q6 0 18 1t18 1q-42 -41 -73 -56.5t-71 -15.5q-93 0 -217 87l-107 75l-13 8q-48 -4 -84 -4q-164 0 -272 107t-108 270q0 168 110.5 273.5t286.5 105.5q170 0 276.5 -105t106.5 -271q0 -137 -77 -243q-21 -28 -38 -43t-51 -36z M170 381v-18q0 -130 80.5 -213.5t200.5 -83.5q99 0 162.5 76.5t63.5 196.5q0 135 -74 225t-185 90q-68 0 -125 -30t-87 -82q-36 -62 -36 -161z" />
<glyph unicode="R" horiz-adv-x="640" d="M254 0h-230q50 38 50 86l-2 543q0 23 -9 45q-10 19 -34 47h248q119 0 188.5 -49.5t69.5 -135.5q0 -68 -46 -114q-25 -25 -51 -37.5t-79 -25.5l67 -89q36 -49 143 -161q44 -44 67.5 -63.5t68.5 -45.5h-131h-31q-40 0 -86 46q-44 45 -110 135q-76 105 -133 197 q188 26 188 146q0 112 -159 112q-18 0 -40 -1v-547q0 -28 11 -47t40 -41z" />
<glyph unicode="S" horiz-adv-x="530" d="M43 11l-40 150q57 -39 116 -58q69 -23 120 -23q61 0 100.5 29.5t39.5 74.5q0 39 -34 64q-41 31 -102 56l-88 37q-64 27 -100.5 75t-36.5 106q0 94 76 151t201 57q30 0 47 -2q41 -4 99 -19v-133q-22 17 -51 36q-46 27 -108 27q-58 0 -95.5 -26t-37.5 -67q0 -35 29 -61 t101 -56q18 -7 39 -15.5t31.5 -13t14.5 -6.5q35 -16 73 -45q73 -57 73 -138q0 -99 -83.5 -163t-211.5 -64q-43 0 -77 5q-46 6 -95 22z" />
<glyph unicode="T" horiz-adv-x="564" d="M-18 582l44 139h557l-46 -146q-12 17 -21 23q-38 27 -121 27q-24 0 -48 -2v-535q0 -23 11 -45q8 -19 41 -43h-235q30 24 38 43q11 19 11 45v534q-28 1 -53 1q-41 0 -61 -2q-60 -6 -117 -39z" />
<glyph unicode="U" horiz-adv-x="758" d="M27 721h225q-26 -24 -36 -43t-10 -46v-393q0 -76 46 -116.5t131 -40.5q83 0 127.5 42.5t44.5 121.5v388q0 46 -40 87h217q-27 -24 -36 -44q-10 -26 -10 -45v-544q0 -28 11.5 -46.5t43.5 -41.5h-187v58q-14 -10 -25 -19q-75 -56 -196 -56q-68 0 -125 22t-90 62 q-26 31 -36 67t-10 105v393q0 26 -9 45q-10 21 -36 44z" />
<glyph unicode="V" horiz-adv-x="631" d="M-57 721h181l211 -573l179 482q5 15 5 27q0 17 -8 29t-31 35h187l-306 -748q-46 19 -73 37t-42 39.5t-34 68.5l-203 512q-4 11 -24 45q-28 31 -42 46z" />
<glyph unicode="W" horiz-adv-x="1064" d="M-57 721h185l195 -561l161 470q2 8 2 13q0 40 -56 78h164l198 -574l167 483q4 11 4 24q0 18 -8 31t-34 36h180l-273 -752l-14 5q-29 10 -53 23q-59 29 -77 82l-16 49l-130 348l-179 -502q-48 17 -79 38q-45 29 -59 65l-13 35l-195 518q-9 25 -24 45q-10 13 -46 46z" />
<glyph unicode="X" horiz-adv-x="705" d="M194 0h-223l299 375l-178 255q-16 23 -39 45q-50 40 -58 46h200l163 -239l114 148q18 23 18 42q0 22 -33 49h211l-254 -323l218 -310q15 -22 40 -45q25 -21 65 -43h-208l-200 290l-160 -202q-15 -20 -15 -40q0 -25 40 -48z" />
<glyph unicode="Y" horiz-adv-x="581" d="M-65 721h203l186 -308l143 217q13 20 13 41q0 20 -29 50h194l-274 -411v-222q0 -28 11 -47t40 -41h-236q28 21 40 43q1 2 2.5 6.5l3 9t2.5 8.5q3 13 3 21l2 223l-208 319q-19 29 -36 45q-24 20 -60 46z" />
<glyph unicode="Z" horiz-adv-x="656" d="M589 0h-603l410 624q-71 6 -117 6q-52 0 -76 -3q-50 -6 -81.5 -15t-81.5 -33l62 142h511l-410 -630q92 -9 157 -9q48 0 71 2q58 4 103 16.5t119 46.5z" />
<glyph unicode="[" horiz-adv-x="223" d="M195 -141h-138v907h138v-75h-14q-21 0 -21 -51v-654q0 -51 21 -51h14v-76z" />
<glyph unicode="\" horiz-adv-x="321" d="M173 0l-126 720h76l127 -720h-77z" />
<glyph unicode="]" horiz-adv-x="223" d="M165 -141h-136v76h13q21 0 21 51v654q0 51 -21 51h-13v75h136v-907z" />
<glyph unicode="^" horiz-adv-x="307" d="M76 556h-76l74 161h161l73 -160h-74l-78 117z" />
<glyph unicode="_" horiz-adv-x="491" d="M407 -30h-360v30h360v-30z" />
<glyph unicode="`" horiz-adv-x="230" d="M105 558l-107 160h108l73 -160h-74z" />
<glyph unicode="a" horiz-adv-x="539" d="M94 390l84 120q52 12 97 12q101 0 154 -43q25 -21 32 -41t7 -72v-211q0 -33 5.5 -47.5t22.5 -23.5q14 -8 50 -8h22l-65 -84q-19 -5 -33 -5q-48 0 -86 31.5t-38 69.5v41v129l-29 -9l-47 -10q-53 -11 -89 -31q-33 -19 -33 -61q0 -37 28 -58t76 -21q33 0 84 15l-60 -84 q-49 -14 -81 -14q-70 0 -121.5 50t-51.5 117q0 111 173 145l59 12q50 10 69.5 23t19.5 38q0 28 -23 44.5t-61 16.5q-27 0 -51 -5q-49 -10 -114 -36z" />
<glyph unicode="b" horiz-adv-x="621" d="M30 716q42 -2 46 -2q20 0 43 3q35 4 77 18v-649q37 -16 92 -16q76 0 127.5 54.5t51.5 134.5q0 74 -45 124.5t-111 50.5q-45 0 -102 -23l72 95q43 8 62 8q106 0 177 -70t71 -174q0 -127 -90 -206.5t-234 -79.5q-92 0 -232 31q26 18 32.5 35.5t6.5 66.5v471q0 60 -7.5 81.5 t-36.5 46.5z" />
<glyph unicode="c" horiz-adv-x="525" d="M453 506v-115q-13 12 -18 15q-48 33 -113 33q-72 0 -117.5 -50t-45.5 -130q0 -84 58 -138t149 -54q87 0 181 62l-82 -129q-77 -21 -127 -21q-132 0 -220.5 77t-88.5 192q0 118 88 196.5t220 78.5q52 0 116 -17z" />
<glyph unicode="d" horiz-adv-x="651" d="M457 467v141q0 51 -5.5 68.5t-27.5 39.5q36 -2 41 -2q19 0 42 3q34 5 72 19v-639q0 -39 9 -59.5t35 -37.5h-168v263q0 80 -39.5 128t-104.5 48q-62 0 -105.5 -50t-43.5 -122q0 -84 50 -138.5t127 -54.5q52 0 104 29l-78 -107q-36 -7 -64 -7q-115 0 -193.5 75.5 t-78.5 186.5q0 113 76 191.5t186 78.5q50 0 82 -10.5t84 -43.5z" />
<glyph unicode="e" horiz-adv-x="570" d="M544 248h-382q5 -58 26 -93q52 -88 172 -88q45 0 96 17q40 14 89 42l-78 -126q-57 -19 -121 -19q-143 0 -230.5 75t-87.5 199q0 115 78 191t196 76q117 0 179 -69.5t63 -204.5zM296 446q-50 0 -82.5 -29.5t-42.5 -83.5h239q-1 50 -33 81.5t-81 31.5z" />
<glyph unicode="f" horiz-adv-x="292" d="M72 440h-49l48 69v13q0 46 9 72t34 54q67 78 197 78q32 0 92 -11l-84 -93q-27 22 -54 22q-69 0 -69 -100v-33h135v-108q-17 18 -25 22q-20 14 -64 14h-46v-342q0 -41 13 -67q6 -12 29 -30h-208q26 19 34 37.5t8 59.5v343z" />
<glyph unicode="g" horiz-adv-x="589" d="M182 -24q-33 -11 -45.5 -24t-12.5 -35q0 -42 50 -71t123 -29q78 0 123.5 32.5t45.5 87.5q0 34 -21 63q-14 22 -41 36q-30 16 -90 19q-58 4 -82 36q-14 21 -14 37q0 13 6 21l2 3q2 3 4 5q23 15 46 29q54 31 78 61.5t24 66.5q0 50 -36.5 85t-89.5 35q-48 0 -79.5 -29 t-31.5 -71q0 -47 40 -81q24 -21 81 -41l-62 -64q-89 19 -137.5 66.5t-48.5 115.5q0 79 64 132.5t159 53.5q29 0 95 -6q59 -4 105 -4q64 0 150 16l-48 -87l-97 4q67 -41 67 -117q0 -90 -130 -158q-17 -9 -17 -17q0 -7 9 -14t23 -9l49 -8q74 -12 113.5 -54t39.5 -106 q0 -99 -90.5 -161.5t-234.5 -62.5q-119 0 -199 44.5t-80 111.5q0 24 17.5 45t44.5 32q33 12 82 12q6 0 21 -0.5t25 -0.5z" />
<glyph unicode="h" horiz-adv-x="623" d="M35 718q29 -3 45 -3q25 0 46 4q26 4 70 22v-280q20 21 33 31q52 37 128 37q86 0 141 -45q32 -26 46 -68q6 -21 6 -41v-53v-225q0 -38 8 -58.5t30 -38.5h-201q23 18 31 37.5t8 59.5v225q0 23 -2 43q-5 34 -33.5 54t-72.5 20q-32 0 -61.5 -11.5t-43.5 -29.5 q-11 -14 -14 -30t-3 -57v-214q0 -42 6 -60t27 -37h-193q22 18 29 37t7 60v509q0 54 -5.5 71t-31.5 41z" />
<glyph unicode="i" horiz-adv-x="268" d="M237 0h-207q25 17 34 36q8 17 8 61v302q0 20 -1 31q-1 31 -8 45t-31 37q20 -1 44 -1q34 0 45 3q33 2 75 18v-435q0 -41 7.5 -58.5t33.5 -38.5zM57 638q-1 32 22 55.5t55 23.5q31 0 53.5 -23.5t22.5 -55.5q0 -30 -23 -52t-55 -22q-31 0 -53 22t-22 52z" />
<glyph unicode="j" horiz-adv-x="267" d="M-24 -257q45 23 65 52q13 19 23 51q7 27 7 56q1 8 1 66v435q0 11 -2 35q-2 26 -9 39.5t-31 33.5q42 -3 55 -3t37 2q32 2 74 22v-566q0 -72 -6 -98t-27 -55q-22 -30 -67 -50.5t-87 -20.5q-20 0 -33 1zM58 637q0 31 23 54t54 23q30 0 50.5 -21.5t20.5 -52.5 q0 -32 -21.5 -54.5t-52.5 -22.5t-52.5 22t-21.5 52z" />
<glyph unicode="k" horiz-adv-x="554" d="M36 720q17 -1 39 -1q56 0 123 22v-644q0 -30 4 -49q8 -29 33 -48h-198q21 19 27.5 37.5t6.5 59.5v531q0 41 -6.5 57.5t-28.5 34.5zM381 52l-179 237l123 138q29 34 29 55q0 12 -17 29h188l-191 -213l205 -242q27 -32 72 -56h-133q-36 0 -55 10t-42 42z" />
<glyph unicode="l" horiz-adv-x="266" d="M236 0h-202q27 22 35 48q5 14 5 49l-2 525q0 40 -6 56t-29 39q21 -2 43 -2q53 0 115 21v-639q0 -27 5 -49q5 -24 36 -48z" />
<glyph unicode="m" horiz-adv-x="932" d="M232 0h-202q30 23 36 48q4 14 4 49l1 295q0 59 -5.5 76t-31.5 41q42 -2 58 -2q36 0 103 21v-47q5 4 29 21q45 26 112 26q40 0 73 -11q29 -9 46.5 -21t43.5 -41q22 22 34 31q59 42 134 42q47 0 94 -20q40 -18 62 -42q25 -26 31.5 -49.5t6.5 -81.5v-238v-23q2 -18 4 -26 q6 -23 31 -48h-198q26 21 34 48q5 16 5 49v234q0 32 -5.5 48.5t-21.5 31.5q-28 26 -79 26q-55 0 -79 -25.5t-24 -81.5v-233q0 -41 6.5 -58.5t30.5 -38.5h-202q30 23 37 48q5 16 5 49v226q0 35 -5 52t-19 31q-29 31 -84 31q-56 0 -85 -32q-18 -22 -18 -75v-233q0 -23 4 -49 q5 -22 34 -48z" />
<glyph unicode="n" horiz-adv-x="624" d="M32 506q18 -1 39 -1q23 0 48 3q32 5 77 20v-71q62 69 160 69q95 0 145 -47t50 -137v-245v-23q0 -6 5 -26q8 -27 34 -48h-204q24 17 32 36.5t8 60.5v213q0 40 -1 50q-5 37 -32.5 57t-73.5 20q-62 0 -97 -32q-17 -16 -21.5 -32t-4.5 -62v-214q0 -37 8.5 -57.5t31.5 -39.5 h-201q18 17 22 24q9 13 11 22q2 8 3 26q1 9 1 25v306q0 45 -7.5 64t-32.5 39z" />
<glyph unicode="o" horiz-adv-x="646" d="M29 259q0 118 86 196.5t216 78.5q128 0 207 -76.5t79 -200.5q0 -119 -85.5 -197.5t-215.5 -78.5t-208.5 76.5t-78.5 201.5zM156 266v-9q0 -84 51.5 -139t126.5 -55q69 0 112.5 53t43.5 138q0 86 -48.5 141.5t-123.5 55.5q-71 0 -116.5 -51.5t-45.5 -133.5z" />
<glyph unicode="p" horiz-adv-x="643" d="M30 509q30 -3 45 -3q54 0 117 24v-71q31 25 34 27q57 38 135 38q107 0 180 -74.5t73 -183.5q0 -114 -75 -195.5t-180 -81.5q-33 0 -71 10l-71 93q55 -24 99 -24q75 0 121 51.5t46 134.5q0 80 -47 134.5t-116 54.5q-126 0 -126 -151v-447q0 -40 7.5 -58.5t34.5 -38.5h-205 q24 19 32.5 36t8.5 47v14l-1 541q0 64 -6 82q-6 15 -35 41z" />
<glyph unicode="q" horiz-adv-x="617" d="M584 491q-24 -20 -30.5 -37.5t-6.5 -62.5v-545v-23q0 -15 4 -26q8 -24 35 -49h-202q26 25 34 49q6 21 6 49v576q-55 13 -86 13q-82 0 -133 -52.5t-51 -137.5q0 -76 44 -124.5t114 -48.5q32 0 98 23l-75 -100q-39 -7 -57 -7q-107 0 -178.5 72t-71.5 179q0 124 90.5 204 t231.5 80q43 0 95 -7q10 -1 32 -5t34 -6q37 -6 73 -14z" />
<glyph unicode="r" horiz-adv-x="359" d="M234 0h-202q28 22 35 46q5 20 5 51v299q0 52 -5.5 69.5t-30.5 42.5q36 -2 41 -2q59 0 119 25v-78q3 4 7.5 8.5t7.5 8t5 5.5q22 21 57.5 34t70.5 13q15 0 30 -2v-121q-22 17 -37.5 22.5t-39.5 5.5q-101 0 -101 -122v-208q0 -41 7 -59t31 -38z" />
<glyph unicode="s" horiz-adv-x="461" d="M57 2l-49 126q39 -25 61 -34q78 -35 154 -35q49 0 77 18t28 49q0 33 -29 51q-20 12 -84 31q-69 21 -88.5 29.5t-46.5 28.5q-48 38 -48 97q0 74 59 115.5t164 41.5q45 0 116 -13v-101q-43 23 -76 32q-30 8 -55 8q-89 0 -89 -54q0 -27 25 -44q17 -13 77 -29 q75 -20 104.5 -34.5t54.5 -42.5q29 -32 29 -86q0 -77 -57.5 -126t-147.5 -49q-58 0 -98 7l-56 11z" />
<glyph unicode="t" horiz-adv-x="315" d="M71 438h-66v44q68 8 98 50.5t30 130.5v12h59v-164h137v-108l-9 8q-18 17 -35 23q-16 4 -34 4h-57v-275q0 -34 9 -49q11 -17 37.5 -28t55.5 -11q11 0 21 1l-71 -90q-56 6 -88.5 19t-55.5 39q-18 21 -24.5 43t-6.5 65v286z" />
<glyph unicode="u" horiz-adv-x="624" d="M32 510q17 -1 37 -1q71 0 127 23v-348q0 -50 17 -74q27 -38 97 -38q59 0 93 31q16 14 21.5 32.5t5.5 58.5v215q0 43 -6.5 60t-32.5 41q36 -2 39 -2q26 0 49 4q36 5 72 19v-434q0 -31 5 -51q6 -22 33 -46h-162v49q-56 -67 -159 -67q-104 0 -158 62q-38 44 -38 132v223 q0 51 -6 68.5t-34 42.5z" />
<glyph unicode="v" horiz-adv-x="515" d="M-37 509q38 -2 42 -2q23 0 53 5q31 5 70 18l141 -386l117 268q16 36 16 51q0 12 -5 22q-1 1 -2.5 3t-3.5 4t-4.5 5.5t-5.5 6.5q-4 4 -6 7h168l-255 -542q-20 4 -36 14q-31 22 -51 45q-14 16 -32 61l-133 325q-17 42 -30 59t-43 36z" />
<glyph unicode="w" horiz-adv-x="868" d="M-37 509q42 -2 47 -2q25 0 48 4q32 6 66 18l139 -373l100 258q16 43 16 51q0 18 -23 40l-9 6h163l126 -362l108 263q18 43 18 56q0 18 -21 36q-6 4 -9 7h163l-237 -543q-35 13 -59 31q-24 17 -31 29q-6 7 -25 43q-19 41 -23 50l-82 214l-147 -369q-48 17 -75.5 41.5 t-42.5 62.5l-14 35l-123 310q-19 48 -35 67q-8 11 -38 27z" />
<glyph unicode="x" horiz-adv-x="544" d="M162 0h-191l229 261l-131 175q-16 22 -40 46q-16 15 -37 29h177l111 -155l69 80q21 26 21 42q0 14 -25 33h200l-206 -235l137 -185q32 -43 47 -56q18 -16 50 -35h-184l-131 181l-95 -111q-24 -28 -24 -39q0 -18 23 -31z" />
<glyph unicode="y" horiz-adv-x="542" d="M-43 -248l94 103q29 -24 59 -24q33 0 52 19q23 23 42 74l27 72l-167 382q-29 67 -43 86.5t-52 43.5q46 -4 53 -4q15 0 47 4q22 4 67 21l160 -380l106 263q15 38 15 54q0 20 -27 45h181l-274 -617q-20 -44 -34 -65q-61 -93 -205 -93q-43 0 -101 16z" />
<glyph unicode="z" horiz-adv-x="535" d="M478 0h-489l316 430q-52 2 -54 2q-130 0 -228 -43l66 122h423l-315 -430q72 -6 119 -6q70 0 119 10q59 11 111 40z" />
<glyph unicode="{" horiz-adv-x="342" d="M47 360q27 2 45 21.5t18 50.5v330q0 71 81 71h78v-45h-12q-35 0 -46.5 -11.5t-11.5 -46.5v-290q0 -31 -20 -54t-51 -26q31 -3 51 -26t20 -54v-290q0 -35 11.5 -46.5t46.5 -11.5h12v-45h-78q-81 0 -81 71v330q0 31 -18 50.5t-45 21.5z" />
<glyph unicode="|" horiz-adv-x="184" d="M123 0h-76v720h76v-720z" />
<glyph unicode="}" horiz-adv-x="342" d="M125 -113h-78v45h12q35 0 46.5 11.5t11.5 46.5v290q0 31 20 54t51 26q-31 3 -51 26t-20 54v290q0 35 -11.5 46.5t-46.5 11.5h-12v45h78q81 0 81 -71v-330q0 -31 18 -50.5t45 -21.5q-27 -2 -45 -21.5t-18 -50.5v-330q0 -71 -81 -71z" />
<glyph unicode="~" horiz-adv-x="417" d="M11 759l38 105q14 6 21 8q28 11 66 11q39 0 86 -14l26 -8q7 -4 21 -6q24 -4 28 -4q18 0 37 5q33 8 71 30l-37 -105q-53 -24 -93 -24q-26 0 -50 6q-4 0 -12 2t-21.5 5.5t-25.5 6.5q-27 9 -51 9t-43 -4q-33 -7 -61 -23z" />
<glyph unicode="&#xa1;" horiz-adv-x="241" d="M43 654q0 32 23 55t56 23q31 0 53.5 -23t22.5 -55t-23 -55.5t-54 -23.5q-32 0 -55 23.5t-23 55.5zM196 1h-145l26 532h92z" />
<glyph unicode="&#xa2;" horiz-adv-x="525" d="M296 521v96h77v-96q36 -3 80 -15v-115q-43 32 -79 43v-367q51 4 89 18t84 44l-82 -129q-45 -13 -91 -19v-78h-79v79q-76 14 -115 31t-73 51q-36 34 -57 84t-21 100q0 110 85 192q38 38 74.5 54t107.5 27zM295 78v360q-41 -12 -61.5 -24t-37.5 -33q-34 -42 -34 -114 q0 -77 41 -129q16 -20 34.5 -32t57.5 -28z" />
<glyph unicode="&#xa3;" horiz-adv-x="572" d="M53 0l-24 98q18 -8 39 -8q43 0 67 24t24 67q0 37 -28 105h-79v91h42q-5 9 -11 23t-8 18q-36 84 -36 147q0 79 57.5 122.5t160.5 43.5q4 0 11.5 -0.5t11.5 -0.5q65 -4 136 -25l56 -140q-60 35 -101 48q-39 12 -82 12q-48 0 -75 -20t-27 -55q0 -45 51 -172h213v-90h-180 q15 -50 15 -83q0 -43 -13.5 -68t-48.5 -48q70 -6 117 -6q35 0 70 3q77 6 161 35l-34 -121h-485z" />
<glyph unicode="&#xa4;" horiz-adv-x="495" d="M47 213l62 61q-28 39 -28.5 87t27.5 87l-60 58q12 18 31 35l62 -62q39 29 87.5 29.5t87.5 -28.5l61 62q17 -14 27 -26q0 -1 3 -4.5t4 -5.5l-62 -58q28 -39 28 -87.5t-29 -87.5l62 -62l-7 -8l-8 -7q-12 -12 -19 -17l-60 62q-39 -29 -87.5 -29t-86.5 29l-63 -61 q-17 12 -32 33zM129 360q0 -41 29.5 -70t70.5 -29t70 29t29 70t-29 70t-70 29t-70.5 -29t-29.5 -70z" />
<glyph unicode="&#xa5;" horiz-adv-x="751" d="M21 721h204l185 -308l142 217q14 23 14 41q0 20 -30 50h195l-212 -319h150v-68h-194l-17 -24v-21h211v-67h-213v-134q0 -28 11 -47t40 -41h-235q30 23 39 43q3 5 9 24q3 14 3 21v138h-206v72h206v13l-13 25h-191v69h149l-151 225q-20 30 -37 45q-13 12 -59 46z" />
<glyph unicode="&#xa7;" horiz-adv-x="613" d="M129 483q-5 7 -12 15l-7 9q-18 29 -18 69q0 67 61.5 113.5t150.5 46.5q55 0 117 -21q39 -13 62 -25t58 -38l-50 -178q-10 77 -38 118q-24 37 -59 58.5t-70 21.5q-42 0 -70 -21t-28 -52q0 -32 41 -64l243 -193q75 -59 75 -138q0 -35 -15 -74q-14 -35 -30.5 -59.5 t-53.5 -62.5q31 -43 31 -80q0 -73 -61.5 -121.5t-153.5 -48.5q-51 0 -97 14q-54 15 -133 67l51 179q7 -51 17 -78.5t31 -55.5q50 -63 115 -63q41 0 70 22t29 54q0 30 -43 64l-243 191q-40 32 -55.5 61t-15.5 72q0 47 21 93q13 30 29 51.5t51 53.5zM437 236l-271 212 q-44 -52 -44 -97q0 -50 44 -85l279 -220q26 32 36 53t10 45q0 50 -54 92z" />
<glyph unicode="&#xa8;" horiz-adv-x="301" d="M-26 628q0 30 21 51.5t51 21.5q29 0 50 -21.5t21 -51.5q0 -29 -21.5 -50t-51.5 -21q-29 0 -49.5 21t-20.5 50zM184 628q0 30 20.5 51.5t49.5 21.5q30 0 51 -21.5t21 -51.5q0 -29 -20.5 -50t-49.5 -21q-30 0 -51 21t-21 50z" />
<glyph unicode="&#xa9;" horiz-adv-x="932" d="M58 361q0 155 109 264t264 109t264 -109t109 -264t-109 -264t-264 -109t-264 109t-109 264zM108 361q0 -135 96 -233q94 -94 227.5 -94t227.5 94q95 97 95 232.5t-95 232.5q-95 95 -228 95t-227 -95q-96 -98 -96 -232zM605 544l-30 -44q-40 35 -88 44 q-90 18 -157.5 -39.5t-66.5 -151.5q0 -19 3 -37q9 -46 39 -81.5t69.5 -52.5t86.5 -14.5t88 28.5q13 9 24 18l31 -43q-64 -54 -155 -57q-64 -2 -118.5 25.5t-86 74t-41 107.5t15.5 126q30 82 105 124.5t165 26.5q65 -11 116 -54z" />
<glyph unicode="&#xaa;" horiz-adv-x="482" d="M57 279v61h342v-61h-342zM329 659l3 -7v68h66l1 -331h-67v73l-3 -8q-17 -47 -71 -65t-112 5q-79 32 -96 124q-12 63 13 116.5t73 79t101 14.5q57 -13 87 -61zM115 556q0 -12 3 -23q9 -48 46 -74q29 -19 61.5 -19t60.5 20q36 26 45 72q5 24 0 48q-12 60 -62 83 q-44 20 -87 1q-53 -24 -65 -87q-2 -14 -2 -21z" />
<glyph unicode="&#xab;" horiz-adv-x="391" d="M143 426h82q-21 -30 -55 -81q-35 -53 -35 -88q0 -16 3 -28q8 -25 23.5 -51t61.5 -87h-98q-8 10 -24.5 29.5t-23.5 27.5q-55 64 -55 104q0 21 15 45q23 38 106 129zM288 426h82q-11 -15 -55 -81q-35 -53 -35 -89q0 -11 2 -27q12 -41 86 -138h-98q-42 49 -49 57 q-56 67 -56 104q0 19 16 45q23 39 107 129z" />
<glyph unicode="&#xac;" horiz-adv-x="627" d="M470 360h-423v76h486v-220h-63v144z" />
<glyph unicode="&#xae;" horiz-adv-x="932" d="M58 361q0 155 109 264t264 109t264 -109t109 -264t-109 -264t-264 -109t-264 109t-109 264zM108 361q0 -135 96 -233q94 -94 227.5 -94t227.5 94q95 97 95 232.5t-95 232.5q-95 95 -228 95t-227 -95q-96 -98 -96 -232zM374 131h-60v469h110q70 0 105 -28q33 -27 42 -72 q11 -62 -18 -103.5t-86 -49.5q-3 0 -8 -0.5t-8 -0.5l147 -215h-71l-153 231v-231zM374 550v-168h39q98 0 100 83q1 40 -23.5 62.5t-70.5 22.5h-45z" />
<glyph unicode="&#xaf;" horiz-adv-x="341" d="M330 572h-318v92h318v-92z" />
<glyph unicode="&#xb1;" horiz-adv-x="594" d="M44 87h462v-68h-462v68zM241 453h68v-122h197v-68h-197v-122h-68v122h-197v68h197v122z" />
<glyph unicode="&#xb4;" horiz-adv-x="235" d="M128 558h-77l74 161h112z" />
<glyph unicode="&#xb5;" horiz-adv-x="623" d="M74 449h92v-296q0 -71 14 -95t50 -24q57 -1 95 80q38 82 38 205v130h92v-328q0 -45 9 -66q9 -20 29 -21q20 0 32 21q11 20 11 61v14h21q0 -5 1 -9v-13q0 -56 -24 -87q-22 -30 -66 -30q-48 -1 -76 43q-24 40 -26 129q-23 -89 -61 -130q-38 -40 -97 -42q-44 0 -73 26 q-28 25 -40 77q0 -2 -0.5 -11.5t-0.5 -16.5q-1 -62 32 -141q32 -78 32 -92q0 -20 -11 -31t-31 -11q-22 -1 -33 17q-8 14 -10 53q0 2 0.5 9.5t1 21t0.5 27.5q2 64 2 89q0 57 -1 101q-2 88 -2 95v245z" />
<glyph unicode="&#xb6;" horiz-adv-x="644" d="M240 720h309v-52h-309q-59 0 -100 -42.5t-40 -102.5q1 -59 42 -100t98 -41h69v242h55v-624h-55v330h-69q-80 0 -136.5 57t-56.5 138t56.5 138t136.5 57zM485 0h-55v624h55v-624z" />
<glyph unicode="&#xb7;" horiz-adv-x="216" d="M29 249q0 32 23 54.5t55 22.5q33 0 56.5 -22.5t23.5 -53.5q0 -34 -23.5 -57t-55.5 -23t-55.5 23t-23.5 56z" />
<glyph unicode="&#xb8;" horiz-adv-x="190" d="M41 -183l40 15q18 8 30.5 23t12.5 29q0 11 -11.5 18.5t-29.5 7.5q-13 0 -34 -4l35 51q37 7 49 7q29 0 47.5 -15t18.5 -40q0 -50 -66 -79q-33 -15 -59 -15q-5 0 -33 2z" />
<glyph unicode="&#xba;" horiz-adv-x="482" d="M394 279h-341v61h341v-61zM47 557q0 12 4 36q17 84 89.5 123t152.5 5q57 -23 86.5 -79t16.5 -121q-11 -53 -48 -91t-89 -48q-36 -8 -71 0q-53 10 -90 48t-48 91q-3 18 -3 36zM114 557q0 -14 1 -21q11 -61 63 -85q50 -23 97 3t56 81q6 36 -6 67.5t-39 50.5q-52 37 -108 11 q-52 -24 -63 -85q-1 -7 -1 -22z" />
<glyph unicode="&#xbb;" horiz-adv-x="391" d="M104 91h-82q10 16 28.5 43t26.5 38q34 51 34 89q0 15 -3 27q-8 25 -23.5 50.5t-60.5 87.5h97q13 -15 49 -57q55 -65 55 -104q0 -20 -15 -46q-18 -31 -106 -128zM249 91h-84q22 30 56 81q35 51 35 87q0 17 -3 29q-8 25 -23.5 51t-61.5 87h98q9 -12 26 -31t23 -26 q55 -67 55 -104q0 -18 -15 -46q-25 -39 -106 -128z" />
<glyph unicode="&#xbf;" horiz-adv-x="410" d="M188 654q0 33 22.5 56t54.5 23t55.5 -23t23.5 -56q0 -32 -23.5 -55t-56.5 -23q-31 0 -53.5 23t-22.5 55zM225 533h92q1 -14 1 -36q0 -36 -12 -65q-15 -34 -39 -60q-4 -4 -9.5 -10t-14 -15t-15.5 -16q-70 -73 -70 -133q0 -50 35 -84.5t86 -34.5q27 0 50 5q45 9 102 33 l-66 -111q-68 -18 -121 -18q-99 0 -160.5 51.5t-61.5 134.5q0 86 81 158l53 47q37 34 58 76q12 24 12 52q0 16 -1 26z" />
<glyph unicode="&#xc0;" horiz-adv-x="741" d="M189 0h-225q39 23 57 43q17 17 29 45l224 540q7 17 7 39t-22 54h180l252 -633q8 -24 28 -45q20 -22 57 -43h-261q36 28 36 59q0 14 -5 29l-64 168h-257l-65 -168q-5 -15 -5 -31q0 -29 34 -57zM452 342l-95 258l-99 -258h194zM328 782l-107 160h108l73 -160h-74z" />
<glyph unicode="&#xc1;" horiz-adv-x="741" d="M189 0h-225q39 23 57 43q17 17 29 45l224 540q7 17 7 39t-22 54h180l252 -633q8 -24 28 -45q20 -22 57 -43h-261q36 28 36 59q0 14 -5 29l-64 168h-257l-65 -168q-5 -15 -5 -31q0 -29 34 -57zM452 342l-95 258l-99 -258h194zM415 782h-77l74 161h112z" />
<glyph unicode="&#xc2;" horiz-adv-x="741" d="M189 0h-225q39 23 57 43q17 17 29 45l224 540q7 17 7 39t-22 54h180l252 -633q8 -24 28 -45q20 -22 57 -43h-261q36 28 36 59q0 14 -5 29l-64 168h-257l-65 -168q-5 -15 -5 -31q0 -29 34 -57zM452 342l-95 258l-99 -258h194zM288 780h-76l74 161h161l73 -160h-74l-78 117 z" />
<glyph unicode="&#xc3;" horiz-adv-x="741" d="M189 0h-225q39 23 57 43q17 17 29 45l224 540q7 17 7 39t-22 54h180l252 -633q8 -24 28 -45q20 -22 57 -43h-261q36 28 36 59q0 14 -5 29l-64 168h-257l-65 -168q-5 -15 -5 -31q0 -29 34 -57zM452 342l-95 258l-99 -258h194zM225 782l25 93q39 20 77 20q33 0 61 -9l22 -7 q2 -1 17 -3q18 -2 20 -2q11 0 32 6q28 10 56 29l-26 -94q-43 -23 -81 -23q-26 0 -80 13q-21 5 -33 5q-19 0 -42 -5q-25 -6 -48 -23z" />
<glyph unicode="&#xc4;" horiz-adv-x="739" d="M188 0h-224q39 23 57 43q17 17 28 43l225 543q8 19 8 38q0 21 -23 54h179l253 -635q11 -26 28 -44q15 -17 56 -42h-259q36 28 36 58q0 12 -4 28l-66 172h-257l-66 -172q-5 -13 -5 -29q0 -29 34 -57zM182 812q0 30 21 50.5t52 20.5q29 0 50 -20.5t21 -50.5 q0 -29 -21 -49.5t-51 -20.5t-51 20.5t-21 49.5zM404 812q0 30 20.5 50.5t49.5 20.5q31 0 52 -20.5t21 -49.5q0 -30 -21 -50.5t-51 -20.5t-50.5 20.5t-20.5 49.5zM357 602l-100 -259h195z" />
<glyph unicode="&#xc5;" horiz-adv-x="741" d="M189 0h-225q39 23 57 43q17 17 29 45l224 540q7 17 7 39t-22 54h48q-21 16 -28.5 29.5t-7.5 37.5q0 35 24.5 60.5t58.5 25.5q35 0 60 -25.5t25 -62.5q0 -22 -7.5 -35.5t-27.5 -29.5h35l252 -633q8 -24 28 -45q20 -22 57 -43h-261q36 28 36 59q0 14 -5 29l-64 168h-257 l-65 -168q-5 -15 -5 -31q0 -29 34 -57zM357 600l-99 -258h194zM311 790q0 -18 13 -30.5t31 -12.5q17 0 30 12.5t13 30.5t-13 31t-30 13q-18 0 -31 -13t-13 -31z" />
<glyph unicode="&#xc6;" horiz-adv-x="1008" d="M178 0h-214q43 30 61.5 50t59.5 79l366 528q13 19 13 31q0 11 -25 33h467v-149q-19 31 -36 44t-40 12l-42 -1h-123v-193h180v-130q-23 25 -42 33.5t-55 8.5h-84v-245q68 -11 117 -11q22 0 34 1q55 3 91 15.5t92 47.5l-52 -154h-469q33 28 42.5 48.5t9.5 67.5v142h-237 l-114 -167q-18 -25 -18 -46q0 -17 18 -45zM530 345v283l-184 -283h184z" />
<glyph unicode="&#xc7;" horiz-adv-x="714" d="M626 717v-129q-18 13 -24 16q-69 41 -161 41q-124 0 -203 -78.5t-79 -202.5q0 -120 76 -199q41 -42 103 -67.5t125 -25.5q70 0 158 34q57 23 108 59l-86 -165q-109 -18 -181 -18q-95 0 -179 26q-116 37 -185 129.5t-69 211.5q0 81 37.5 158.5t101.5 130.5q120 98 309 98 q60 0 149 -19zM344 -192q31 10 40 15q18 8 30.5 23t12.5 29q0 11 -11.5 18.5t-29.5 7.5q-7 0 -35 -5l36 51q42 8 49 8q29 0 47.5 -15.5t18.5 -40.5q0 -49 -66 -78q-35 -16 -60 -16q-11 0 -32 3z" />
<glyph unicode="&#xc8;" horiz-adv-x="544" d="M489 0h-467q30 25 40 43q9 23 9 45l1 542q0 28 -7.5 44.5t-33.5 46.5h420v-150q-37 55 -83 55h-39h-125v-195h183v-127q-21 24 -42.5 32.5t-60.5 8.5h-80v-247q69 -10 117 -10q36 0 54 2q55 4 86.5 16t79.5 45zM242 782l-107 160h108l73 -160h-74z" />
<glyph unicode="&#xc9;" horiz-adv-x="544" d="M489 0h-467q30 25 40 43q9 23 9 45l1 542q0 28 -7.5 44.5t-33.5 46.5h420v-150q-37 55 -83 55h-39h-125v-195h183v-127q-21 24 -42.5 32.5t-60.5 8.5h-80v-247q69 -10 117 -10q36 0 54 2q55 4 86.5 16t79.5 45zM293 782h-77l74 161h112z" />
<glyph unicode="&#xca;" horiz-adv-x="544" d="M489 0h-467q30 25 40 43q9 23 9 45l1 542q0 28 -7.5 44.5t-33.5 46.5h420v-150q-37 55 -83 55h-39h-125v-195h183v-127q-21 24 -42.5 32.5t-60.5 8.5h-80v-247q69 -10 117 -10q36 0 54 2q55 4 86.5 16t79.5 45zM184 780h-76l74 161h161l73 -160h-74l-78 117z" />
<glyph unicode="&#xcb;" horiz-adv-x="544" d="M489 0h-467q30 25 40 43q9 23 9 45l1 542q0 28 -7.5 44.5t-33.5 46.5h420v-150q-37 55 -83 55h-39h-125v-195h183v-127q-21 24 -42.5 32.5t-60.5 8.5h-80v-247q69 -10 117 -10q36 0 54 2q55 4 86.5 16t79.5 45zM85 852q0 30 21 51.5t51 21.5q29 0 50 -21.5t21 -51.5 q0 -29 -21.5 -50t-51.5 -21q-29 0 -49.5 21t-20.5 50zM295 852q0 30 20.5 51.5t49.5 21.5q30 0 51 -21.5t21 -51.5q0 -29 -20.5 -50t-49.5 -21q-30 0 -51 21t-21 50z" />
<glyph unicode="&#xcc;" horiz-adv-x="277" d="M257 0h-235q50 37 50 88v542q0 30 -9.5 49.5t-35.5 41.5h224q-26 -22 -35.5 -41.5t-9.5 -49.5v-542q0 -50 51 -88zM115 782l-107 160h108l73 -160h-74z" />
<glyph unicode="&#xcd;" horiz-adv-x="277" d="M257 0h-235q50 37 50 88v542q0 30 -9.5 49.5t-35.5 41.5h224q-26 -22 -35.5 -41.5t-9.5 -49.5v-542q0 -50 51 -88zM189 782h-77l74 161h112z" />
<glyph unicode="&#xce;" horiz-adv-x="277" d="M257 0h-235q50 37 50 88v542q0 30 -9.5 49.5t-35.5 41.5h224q-26 -22 -35.5 -41.5t-9.5 -49.5v-542q0 -50 51 -88zM62 780h-76l74 161h161l73 -160h-74l-78 117z" />
<glyph unicode="&#xcf;" horiz-adv-x="277" d="M257 0h-235q50 37 50 88v542q0 30 -9.5 49.5t-35.5 41.5h224q-26 -22 -35.5 -41.5t-9.5 -49.5v-542q0 -50 51 -88zM-32 852q0 30 21 51.5t51 21.5q29 0 50 -21.5t21 -51.5q0 -29 -21.5 -50t-51.5 -21q-29 0 -49.5 21t-20.5 50zM178 852q0 30 20.5 51.5t49.5 21.5 q30 0 51 -21.5t21 -51.5q0 -29 -20.5 -50t-49.5 -21q-30 0 -51 21t-21 50z" />
<glyph unicode="&#xd1;" horiz-adv-x="764" d="M226 0h-203q30 25 40 43q9 19 9 45l2 542q0 26 -8 45q-8 17 -35 46h157l404 -511v420q0 26 -8 45q-8 18 -34 46h183q-25 -30 -33 -47.5t-8 -43.5v-662q-38 9 -76 33q-27 17 -57 45q-17 17 -42 49q-24 28 -27 33l-317 397v-439q0 -22 11 -44q9 -18 42 -42zM247 782l25 93 q39 20 77 20q33 0 61 -9l22 -7q2 -1 17 -3q18 -2 20 -2q11 0 32 6q28 10 56 29l-26 -94q-43 -23 -81 -23q-26 0 -80 13q-21 5 -33 5q-19 0 -42 -5q-25 -6 -48 -23z" />
<glyph unicode="&#xd2;" horiz-adv-x="836" d="M29 364q0 163 111.5 268.5t282.5 105.5q170 0 276.5 -104t106.5 -271q0 -171 -107.5 -276t-284.5 -105q-170 0 -277.5 106.5t-107.5 275.5zM164 382q0 -4 0.5 -10t0.5 -10q8 -129 85 -212t189 -83q103 0 168 77.5t65 199.5q0 130 -76 220t-186 90q-111 0 -178.5 -74.5 t-67.5 -197.5zM387 782l-107 160h108l73 -160h-74z" />
<glyph unicode="&#xd3;" horiz-adv-x="836" d="M29 364q0 163 111.5 268.5t282.5 105.5q170 0 276.5 -104t106.5 -271q0 -171 -107.5 -276t-284.5 -105q-170 0 -277.5 106.5t-107.5 275.5zM164 382q0 -4 0.5 -10t0.5 -10q8 -129 85 -212t189 -83q103 0 168 77.5t65 199.5q0 130 -76 220t-186 90q-111 0 -178.5 -74.5 t-67.5 -197.5zM466 782h-77l74 161h112z" />
<glyph unicode="&#xd4;" horiz-adv-x="836" d="M29 364q0 163 111.5 268.5t282.5 105.5q170 0 276.5 -104t106.5 -271q0 -171 -107.5 -276t-284.5 -105q-170 0 -277.5 106.5t-107.5 275.5zM164 382q0 -4 0.5 -10t0.5 -10q8 -129 85 -212t189 -83q103 0 168 77.5t65 199.5q0 130 -76 220t-186 90q-111 0 -178.5 -74.5 t-67.5 -197.5zM344 780h-76l74 161h161l73 -160h-74l-78 117z" />
<glyph unicode="&#xd5;" horiz-adv-x="836" d="M29 364q0 163 111.5 268.5t282.5 105.5q170 0 276.5 -104t106.5 -271q0 -171 -107.5 -276t-284.5 -105q-170 0 -277.5 106.5t-107.5 275.5zM164 382q0 -4 0.5 -10t0.5 -10q8 -129 85 -212t189 -83q103 0 168 77.5t65 199.5q0 130 -76 220t-186 90q-111 0 -178.5 -74.5 t-67.5 -197.5zM282 782l25 93q39 20 77 20q32 0 61 -9l22 -7q2 -1 17 -3q18 -2 20 -2q11 0 32 6q28 10 56 29l-26 -94q-43 -23 -81 -23q-26 0 -80 13q-21 5 -33 5q-19 0 -42 -5q-25 -6 -48 -23z" />
<glyph unicode="&#xd6;" horiz-adv-x="835" d="M29 364q0 163 111 268.5t283 105.5q171 0 276.5 -104t105.5 -271q0 -171 -106.5 -276t-281.5 -105q-173 0 -280.5 106t-107.5 276zM217 815q0 29 21.5 50t52.5 21q29 0 49.5 -21t20.5 -50t-20.5 -50t-50.5 -21t-51.5 21t-21.5 50zM497 815q0 29 20.5 50t49.5 21 q30 0 52 -20.5t22 -49.5q0 -30 -21.5 -51t-52.5 -21q-29 0 -49.5 21t-20.5 50zM163 381v-20q0 -126 81 -210.5t195 -84.5q103 0 168 78t65 200q0 131 -76 221t-187 90q-110 0 -178 -75t-68 -199z" />
<glyph unicode="&#xd7;" d="M238 360l-135 135l86 86l134 -136l136 137l86 -86l-135 -136l135 -135l-87 -86l-135 136l-135 -136l-85 86z" />
<glyph unicode="&#xd8;" horiz-adv-x="810" d="M56 -8l-27 26l89 87q-54 75 -71.5 125.5t-17.5 127.5q0 168 106.5 274t273.5 106q46 0 103 -12q56 -13 86.5 -30t70.5 -58l85 81l27 -28l-84 -81q52 -72 68 -119.5t16 -131.5q0 -167 -104 -272t-269 -105q-78 0 -144 22q-37 13 -60.5 27.5t-58.5 46.5zM209 196l376 359 q-47 53 -90.5 76.5t-96.5 23.5q-108 0 -173 -75t-65 -199q0 -51 10 -88.5t39 -96.5zM605 523l-371 -362q51 -49 92 -70q52 -26 102 -26q97 0 160 80.5t63 204.5q0 49 -9.5 83.5t-36.5 89.5z" />
<glyph unicode="&#xd9;" horiz-adv-x="758" d="M27 721h225q-26 -24 -36 -43t-10 -46v-393q0 -76 46 -116.5t131 -40.5q83 0 127.5 42.5t44.5 121.5v388q0 46 -40 87h217q-27 -24 -36 -44q-10 -26 -10 -45v-544q0 -28 11.5 -46.5t43.5 -41.5h-187v58q-14 -10 -25 -19q-75 -56 -196 -56q-68 0 -125 22t-90 62 q-26 31 -36 67t-10 105v393q0 26 -9 45q-10 21 -36 44zM363 782l-107 160h108l73 -160h-74z" />
<glyph unicode="&#xda;" horiz-adv-x="758" d="M27 721h225q-26 -24 -36 -43t-10 -46v-393q0 -76 46 -116.5t131 -40.5q83 0 127.5 42.5t44.5 121.5v388q0 46 -40 87h217q-27 -24 -36 -44q-10 -26 -10 -45v-544q0 -28 11.5 -46.5t43.5 -41.5h-187v58q-14 -10 -25 -19q-75 -56 -196 -56q-68 0 -125 22t-90 62 q-26 31 -36 67t-10 105v393q0 26 -9 45q-10 21 -36 44zM429 782h-77l74 161h112z" />
<glyph unicode="&#xdb;" horiz-adv-x="758" d="M27 721h225q-26 -24 -36 -43t-10 -46v-393q0 -76 46 -116.5t131 -40.5q83 0 127.5 42.5t44.5 121.5v388q0 46 -40 87h217q-27 -24 -36 -44q-10 -26 -10 -45v-544q0 -28 11.5 -46.5t43.5 -41.5h-187v58q-14 -10 -25 -19q-75 -56 -196 -56q-68 0 -125 22t-90 62 q-26 31 -36 67t-10 105v393q0 26 -9 45q-10 21 -36 44zM319 780h-76l74 161h161l73 -160h-74l-78 117z" />
<glyph unicode="&#xdc;" horiz-adv-x="757" d="M27 721h224q-26 -23 -36 -42t-10 -45v-395q0 -55 19 -87t62 -51.5t96 -19.5q84 0 128.5 42.5t44.5 122.5v388q0 46 -40 87h216q-26 -22 -36 -43q-10 -22 -10 -44v-546q0 -29 11 -47t42 -41h-184v58q-3 -2 -24 -19q-35 -26 -88.5 -41t-108.5 -15q-68 0 -125 22t-90 62 q-27 32 -36.5 67t-9.5 105v395q0 19 -9 44q-8 18 -36 43zM217 812q0 30 21 50.5t52 20.5q29 0 50 -20.5t21 -50.5q0 -29 -21 -49.5t-50 -20.5q-31 0 -52 20.5t-21 49.5zM438 812q0 30 21 50.5t50 20.5q31 0 52 -20.5t21 -49.5q0 -30 -21 -50.5t-51 -20.5t-51 20.5t-21 49.5z " />
<glyph unicode="&#xdf;" horiz-adv-x="646" d="M240 0h-208q27 24 35 48q4 19 4 49v428q0 47 9 75t32 55q68 80 193 80q100 0 160.5 -48t60.5 -127q0 -44 -13 -69t-54 -54q43 -8 65 -20t49 -40q53 -57 53 -140q0 -107 -81.5 -176.5t-206.5 -69.5q-27 0 -42 1l-69 125q76 -40 130 -40q61 0 100 39.5t39 101.5 q0 58 -31 100q-18 25 -43 39q-22 13 -43.5 17.5t-68.5 6.5l-42 80q46 1 76 8q67 17 67 90q0 41 -29 66t-76 25q-46 0 -78 -24q-17 -13 -23.5 -37.5t-6.5 -74.5v-417q0 -30 5 -49q7 -25 37 -48z" />
<glyph unicode="&#xe0;" horiz-adv-x="539" d="M94 390l84 120q52 12 97 12q101 0 154 -43q25 -21 32 -41t7 -72v-211q0 -33 5.5 -47.5t22.5 -23.5q14 -8 50 -8h22l-65 -84q-19 -5 -33 -5q-48 0 -86 31.5t-38 69.5v41v129l-29 -9l-47 -10q-53 -11 -89 -31q-33 -19 -33 -61q0 -37 28 -58t76 -21q33 0 84 15l-60 -84 q-49 -14 -81 -14q-70 0 -121.5 50t-51.5 117q0 111 173 145l59 12q50 10 69.5 23t19.5 38q0 28 -23 44.5t-61 16.5q-27 0 -51 -5q-49 -10 -114 -36zM249 558l-107 160h108l73 -160h-74z" />
<glyph unicode="&#xe1;" horiz-adv-x="539" d="M94 390l84 120q52 12 97 12q101 0 154 -43q25 -21 32 -41t7 -72v-211q0 -33 5.5 -47.5t22.5 -23.5q14 -8 50 -8h22l-65 -84q-19 -5 -33 -5q-48 0 -86 31.5t-38 69.5v41v129l-29 -9l-47 -10q-53 -11 -89 -31q-33 -19 -33 -61q0 -37 28 -58t76 -21q33 0 84 15l-60 -84 q-49 -14 -81 -14q-70 0 -121.5 50t-51.5 117q0 111 173 145l59 12q50 10 69.5 23t19.5 38q0 28 -23 44.5t-61 16.5q-27 0 -51 -5q-49 -10 -114 -36zM310 558h-77l74 161h112z" />
<glyph unicode="&#xe2;" horiz-adv-x="539" d="M94 390l84 120q52 12 97 12q101 0 154 -43q25 -21 32 -41t7 -72v-211q0 -33 5.5 -47.5t22.5 -23.5q14 -8 50 -8h22l-65 -84q-19 -5 -33 -5q-48 0 -86 31.5t-38 69.5v41v129l-29 -9l-47 -10q-53 -11 -89 -31q-33 -19 -33 -61q0 -37 28 -58t76 -21q33 0 84 15l-60 -84 q-49 -14 -81 -14q-70 0 -121.5 50t-51.5 117q0 111 173 145l59 12q50 10 69.5 23t19.5 38q0 28 -23 44.5t-61 16.5q-27 0 -51 -5q-49 -10 -114 -36zM222 556h-76l74 161h161l73 -160h-74l-78 117z" />
<glyph unicode="&#xe3;" horiz-adv-x="539" d="M94 390l84 120q52 12 97 12q101 0 154 -43q25 -21 32 -41t7 -72v-211q0 -33 5.5 -47.5t22.5 -23.5q14 -8 50 -8h22l-65 -84q-19 -5 -33 -5q-48 0 -86 31.5t-38 69.5v41v129l-29 -9l-47 -10q-53 -11 -89 -31q-33 -19 -33 -61q0 -37 28 -58t76 -21q33 0 84 15l-60 -84 q-49 -14 -81 -14q-70 0 -121.5 50t-51.5 117q0 111 173 145l59 12q50 10 69.5 23t19.5 38q0 28 -23 44.5t-61 16.5q-27 0 -51 -5q-49 -10 -114 -36zM149 558l25 93q39 20 77 20q33 0 61 -9l22 -7q2 -1 17 -3q18 -2 20 -2q11 0 32 6q28 10 56 29l-26 -94q-43 -23 -81 -23 q-26 0 -80 13q-21 5 -33 5q-19 0 -42 -5q-25 -6 -48 -23z" />
<glyph unicode="&#xe4;" horiz-adv-x="539" d="M94 390l84 120q52 12 97 12q101 0 154 -43q25 -21 32 -41t7 -72v-211q0 -33 5.5 -47.5t22.5 -23.5q14 -8 50 -8h22l-65 -84q-19 -5 -33 -5q-48 0 -86 31.5t-38 69.5v41v129l-29 -9l-47 -10q-53 -11 -89 -31q-33 -19 -33 -61q0 -37 28 -58t76 -21q33 0 84 15l-60 -84 q-49 -14 -81 -14q-70 0 -121.5 50t-51.5 117q0 110 173 145l59 12q50 10 69.5 23t19.5 38q0 28 -23 44.5t-61 16.5q-27 0 -51 -5q-49 -10 -114 -36zM125 625q0 30 21 51t51 21q29 0 49.5 -21t20.5 -51q0 -29 -21 -50t-51 -21q-29 0 -49.5 21t-20.5 50zM334 625q0 30 21 51 t50 21q30 0 51 -21t21 -51q0 -29 -20.5 -50t-49.5 -21q-30 0 -51.5 21t-21.5 50z" />
<glyph unicode="&#xe5;" horiz-adv-x="539" d="M229 642q0 35 24 59t59 24t60.5 -24t25.5 -58q0 -35 -25 -60.5t-60 -25.5q-34 0 -59 25t-25 60zM94 390l84 120q52 12 97 12q101 0 154 -43q25 -21 32 -41t7 -72v-211q0 -33 5.5 -47.5t22.5 -23.5q14 -8 50 -8h22l-65 -84q-19 -5 -33 -5q-48 0 -86 31.5t-38 69.5v41v129 l-29 -9l-47 -10q-53 -11 -89 -31q-33 -19 -33 -61q0 -37 28 -58t76 -21q33 0 84 15l-60 -84q-49 -14 -81 -14q-70 0 -121.5 50t-51.5 117q0 111 173 145l59 12q50 10 69.5 23t19.5 38q0 28 -23 44.5t-61 16.5q-27 0 -51 -5q-49 -10 -114 -36zM269 642q-1 -18 12 -30.5 t31 -12.5t31 12.5t13 30.5t-13 30.5t-31 12.5q-17 0 -29.5 -12.5t-13.5 -30.5z" />
<glyph unicode="&#xe6;" horiz-adv-x="882" d="M94 392l80 116q59 15 102 15q28 0 49 -4q46 -7 66.5 -16.5t47.5 -39.5q54 37 88 49t85 12q103 0 165 -53q40 -33 59 -85q12 -31 15.5 -57t5.5 -79h-380q9 -61 28 -93q24 -41 71 -65t103 -24q40 0 89 16q32 11 87 42l-73 -125q-67 -20 -130 -20q-83 0 -149 30 q-52 22 -91 61q-35 36 -49.5 75.5t-19.5 113.5l-49 -16l-46 -11q-100 -24 -100 -89q0 -34 24 -54t65 -20q25 0 38 3q26 2 44 10.5t44 29.5l-33 -98q-77 -29 -122 -29q-78 0 -132 49t-54 119q0 119 181 147l59 9q43 7 61.5 20.5t18.5 38.5q0 27 -24.5 44t-63.5 17 q-10 0 -36 -2q-37 -5 -60.5 -12t-63.5 -25zM510 402q-16 -19 -28 -65h244q-10 55 -40.5 84t-76.5 29q-61 0 -99 -48z" />
<glyph unicode="&#xe7;" horiz-adv-x="525" d="M453 506v-115q-13 12 -18 15q-48 33 -113 33q-72 0 -117.5 -50t-45.5 -130q0 -84 58 -138t149 -54q87 0 181 62l-82 -129q-77 -21 -127 -21q-132 0 -220.5 77t-88.5 192q0 118 88 196.5t220 78.5q52 0 116 -17zM225 -183l40 15q18 8 30.5 23t12.5 29q0 11 -11.5 18.5 t-29.5 7.5q-12 0 -35 -4l36 51q37 7 49 7q29 0 47.5 -15t18.5 -40q0 -50 -66 -79q-33 -15 -60 -15q-4 0 -32 2z" />
<glyph unicode="&#xe8;" horiz-adv-x="570" d="M544 248h-382q5 -58 26 -93q52 -88 172 -88q45 0 96 17q40 14 89 42l-78 -126q-57 -19 -121 -19q-143 0 -230.5 75t-87.5 199q0 115 78 191t196 76q117 0 179 -69.5t63 -204.5zM296 446q-50 0 -82.5 -29.5t-42.5 -83.5h239q-1 50 -33 81.5t-81 31.5zM270 558l-107 160 h108l73 -160h-74z" />
<glyph unicode="&#xe9;" horiz-adv-x="570" d="M544 248h-382q5 -58 26 -93q52 -88 172 -88q45 0 96 17q40 14 89 42l-78 -126q-57 -19 -121 -19q-143 0 -230.5 75t-87.5 199q0 115 78 191t196 76q117 0 179 -69.5t63 -204.5zM296 446q-50 0 -82.5 -29.5t-42.5 -83.5h239q-1 50 -33 81.5t-81 31.5zM345 558h-77l74 161 h112z" />
<glyph unicode="&#xea;" horiz-adv-x="570" d="M544 248h-382q5 -58 26 -93q52 -88 172 -88q45 0 96 17q40 14 89 42l-78 -126q-57 -19 -121 -19q-143 0 -230.5 75t-87.5 199q0 115 78 191t196 76q117 0 179 -69.5t63 -204.5zM296 446q-50 0 -82.5 -29.5t-42.5 -83.5h239q-1 50 -33 81.5t-81 31.5zM227 556h-76l74 161 h161l73 -160h-74l-78 117z" />
<glyph unicode="&#xeb;" horiz-adv-x="570" d="M544 248h-382q5 -58 26 -93q52 -88 172 -88q45 0 96 17q40 14 89 42l-78 -126q-57 -19 -121 -19q-143 0 -230.5 75t-87.5 199q0 115 78 191t196 76q117 0 179 -69.5t63 -204.5zM296 446q-50 0 -82.5 -29.5t-42.5 -83.5h239q-1 50 -33 81.5t-81 31.5zM128 628 q0 30 21 51.5t51 21.5q29 0 50 -21.5t21 -51.5q0 -29 -21.5 -50t-51.5 -21q-29 0 -49.5 21t-20.5 50zM338 628q0 30 20.5 51.5t49.5 21.5q30 0 51 -21.5t21 -51.5q0 -29 -20.5 -50t-49.5 -21q-30 0 -51 21t-21 50z" />
<glyph unicode="&#xec;" horiz-adv-x="268" d="M237 0h-207q30 23 38 46q4 12 4 51v302q0 51 -6.5 69t-34.5 46q30 -3 60 -3q38 0 105 21v-435l1 -23q0 -15 4 -26q6 -25 36 -48zM101 558l-107 160h108l73 -160h-74z" />
<glyph unicode="&#xed;" horiz-adv-x="268" d="M237 0h-207q30 23 38 46q4 12 4 51v302q0 51 -6.5 69t-34.5 46q30 -3 60 -3q38 0 105 21v-435l1 -23q0 -15 4 -26q6 -25 36 -48zM172 558h-77l74 161h112z" />
<glyph unicode="&#xee;" horiz-adv-x="268" d="M237 0h-207q30 23 38 46q4 12 4 51v302q0 51 -6.5 69t-34.5 46q30 -3 60 -3q38 0 105 21v-435l1 -23q0 -15 4 -26q6 -25 36 -48zM53 556h-76l74 161h161l73 -160h-74l-78 117z" />
<glyph unicode="&#xef;" horiz-adv-x="268" d="M237 0h-207q30 23 38 46q4 12 4 51v302q0 51 -6.5 69t-34.5 46q30 -3 60 -3q38 0 105 21v-435l1 -23q0 -15 4 -26q6 -25 36 -48zM-39 628q0 30 21 51.5t51 21.5q29 0 50 -21.5t21 -51.5q0 -29 -21.5 -50t-51.5 -21q-29 0 -49.5 21t-20.5 50zM171 628q0 30 20.5 51.5 t49.5 21.5q30 0 51 -21.5t21 -51.5q0 -29 -20.5 -50t-49.5 -21q-30 0 -51 21t-21 50z" />
<glyph unicode="&#xf1;" horiz-adv-x="624" d="M32 506q18 -1 39 -1q23 0 48 3q32 5 77 20v-71q62 69 160 69q95 0 145 -47t50 -137v-245v-23q0 -6 5 -26q8 -27 34 -48h-204q24 17 32 36.5t8 60.5v213q0 40 -1 50q-5 37 -32.5 57t-73.5 20q-62 0 -97 -32q-17 -16 -21.5 -32t-4.5 -62v-214q0 -37 8.5 -57.5t31.5 -39.5 h-201q18 17 22 24q9 13 11 22q2 8 3 26q1 9 1 25v306q0 45 -7.5 64t-32.5 39zM177 558l25 93q39 20 77 20q33 0 61 -9l22 -7q2 -1 17 -3q18 -2 20 -2q11 0 32 6q28 10 56 29l-26 -94q-43 -23 -81 -23q-26 0 -80 13q-21 5 -33 5q-19 0 -42 -5q-25 -6 -48 -23z" />
<glyph unicode="&#xf2;" horiz-adv-x="646" d="M29 259q0 118 86 196.5t216 78.5q128 0 207 -76.5t79 -200.5q0 -119 -85.5 -197.5t-215.5 -78.5t-208.5 76.5t-78.5 201.5zM156 266v-9q0 -84 51.5 -139t126.5 -55q69 0 112.5 53t43.5 138q0 86 -48.5 141.5t-123.5 55.5q-71 0 -116.5 -51.5t-45.5 -133.5zM293 558 l-107 160h108l73 -160h-74z" />
<glyph unicode="&#xf3;" horiz-adv-x="646" d="M29 259q0 118 86 196.5t216 78.5q128 0 207 -76.5t79 -200.5q0 -119 -85.5 -197.5t-215.5 -78.5t-208.5 76.5t-78.5 201.5zM156 266v-9q0 -84 51.5 -139t126.5 -55q69 0 112.5 53t43.5 138q0 86 -48.5 141.5t-123.5 55.5q-71 0 -116.5 -51.5t-45.5 -133.5zM366 558h-77 l74 161h112z" />
<glyph unicode="&#xf4;" horiz-adv-x="646" d="M29 259q0 118 86 196.5t216 78.5q128 0 207 -76.5t79 -200.5q0 -119 -85.5 -197.5t-215.5 -78.5t-208.5 76.5t-78.5 201.5zM156 266v-9q0 -84 51.5 -139t126.5 -55q69 0 112.5 53t43.5 138q0 86 -48.5 141.5t-123.5 55.5q-71 0 -116.5 -51.5t-45.5 -133.5zM246 556h-76 l74 161h161l73 -160h-74l-78 117z" />
<glyph unicode="&#xf5;" horiz-adv-x="646" d="M29 259q0 118 86 196.5t216 78.5q128 0 207 -76.5t79 -200.5q0 -119 -85.5 -197.5t-215.5 -78.5t-208.5 76.5t-78.5 201.5zM156 266v-9q0 -84 51.5 -139t126.5 -55q69 0 112.5 53t43.5 138q0 86 -48.5 141.5t-123.5 55.5q-71 0 -116.5 -51.5t-45.5 -133.5zM188 558l25 93 q39 20 77 20q32 0 61 -9l22 -7q2 -1 17 -3q18 -2 20 -2q11 0 32 6q28 10 56 29l-26 -94q-43 -23 -81 -23q-26 0 -80 13q-21 5 -33 5q-19 0 -42 -5q-25 -6 -48 -23z" />
<glyph unicode="&#xf6;" horiz-adv-x="639" d="M26 259q0 118 86 196.5t216 78.5q127 0 206.5 -76.5t79.5 -200.5q0 -119 -86 -197.5t-216 -78.5t-208 76.5t-78 201.5zM148 625q0 30 21.5 51t51.5 21q29 0 49.5 -21t20.5 -51q0 -29 -21 -50t-51 -21q-29 0 -50 21t-21 50zM358 625q0 30 20.5 51t49.5 21q30 0 51.5 -21 t21.5 -51q0 -29 -20.5 -50t-49.5 -21q-30 0 -51.5 21t-21.5 50zM152 266v-9q0 -84 51.5 -139t127.5 -55q69 0 112 53t43 138q0 86 -48 141.5t-123 55.5q-72 0 -117.5 -51.5t-45.5 -133.5z" />
<glyph unicode="&#xf7;" horiz-adv-x="594" d="M234 141q19 17 41 17q24 0 40 -16t16 -41q0 -24 -17 -40q-15 -17 -39 -17t-41 17q-16 18 -16 40q0 24 16 40zM43 270h463v-68h-463v68zM234 410q17 15 41 17q24 0 39 -17q17 -17 17 -40q0 -24 -17 -40q-15 -17 -39 -17t-41 17q-16 16 -16 40t16 40z" />
<glyph unicode="&#xf8;" horiz-adv-x="639" d="M51 -5l-26 30l60 55q-24 36 -35 62q-24 59 -24 113q0 121 84.5 200t213.5 79q87 0 143 -28q16 -7 50 -31l70 62l27 -27l-69 -61l9 -11l8 -12q52 -62 52 -167q0 -139 -112 -222q-75 -56 -192 -56q-116 0 -199 69zM176 163l260 237q-25 22 -26 23q-39 29 -95 29 q-70 0 -115.5 -53t-45.5 -135q0 -54 22 -101zM458 369l-261 -239q48 -65 136 -65q68 0 111.5 53t43.5 136q0 65 -30 115z" />
<glyph unicode="&#xf9;" horiz-adv-x="624" d="M32 510q17 -1 37 -1q71 0 127 23v-348q0 -50 17 -74q27 -38 97 -38q59 0 93 31q16 14 21.5 32.5t5.5 58.5v215q0 43 -6.5 60t-32.5 41q36 -2 39 -2q26 0 49 4q36 5 72 19v-434q0 -31 5 -51q6 -22 33 -46h-162v49q-56 -67 -159 -67q-104 0 -158 62q-38 44 -38 132v223 q0 51 -6 68.5t-34 42.5zM295 558l-107 160h108l73 -160h-74z" />
<glyph unicode="&#xfa;" horiz-adv-x="624" d="M32 510q17 -1 37 -1q71 0 127 23v-348q0 -50 17 -74q27 -38 97 -38q59 0 93 31q16 14 21.5 32.5t5.5 58.5v215q0 43 -6.5 60t-32.5 41q36 -2 39 -2q26 0 49 4q36 5 72 19v-434q0 -31 5 -51q6 -22 33 -46h-162v49q-56 -67 -159 -67q-104 0 -158 62q-38 44 -38 132v223 q0 51 -6 68.5t-34 42.5zM352 558h-77l74 161h112z" />
<glyph unicode="&#xfb;" horiz-adv-x="624" d="M32 510q17 -1 37 -1q71 0 127 23v-348q0 -50 17 -74q27 -38 97 -38q59 0 93 31q16 14 21.5 32.5t5.5 58.5v215q0 43 -6.5 60t-32.5 41q36 -2 39 -2q26 0 49 4q36 5 72 19v-434q0 -31 5 -51q6 -22 33 -46h-162v49q-56 -67 -159 -67q-104 0 -158 62q-38 44 -38 132v223 q0 51 -6 68.5t-34 42.5zM244 556h-76l74 161h161l73 -160h-74l-78 117z" />
<glyph unicode="&#xfc;" horiz-adv-x="624" d="M32 510h31q42 0 64.5 3.5t68.5 18.5v-348q0 -50 17 -74q27 -38 97 -38q59 0 93 31q16 14 21.5 32.5t5.5 58.5v215q0 43 -6.5 60t-32.5 41q12 -1 36 -1q56 0 124 22v-434q0 -31 5 -51q6 -22 33 -46h-162v49q-56 -67 -159 -67q-104 0 -158 62q-38 44 -38 132v223 q0 51 -6 68.5t-34 42.5zM142 625q0 30 21 51t51 21q29 0 50 -21t21 -51q0 -29 -21.5 -50t-51.5 -21q-29 0 -49.5 21t-20.5 50zM352 625q0 30 20.5 51t49.5 21q30 0 51 -21t21 -51q0 -29 -20.5 -50t-49.5 -21q-30 0 -51 21t-21 50z" />
<glyph unicode="&#xff;" horiz-adv-x="542" d="M-43 -248l94 103q29 -24 59 -24q33 0 52 19q23 23 42 74l27 72l-167 382q-29 67 -43 86.5t-52 43.5q46 -4 53 -4q15 0 47 4q22 4 67 21l160 -380l106 263q15 38 15 54q0 20 -27 45h181l-274 -617q-20 -44 -34 -65q-61 -93 -205 -93q-43 0 -101 16zM119 628q0 30 21 51.5 t51 21.5q29 0 50 -21.5t21 -51.5q0 -29 -21.5 -50t-51.5 -21q-29 0 -49.5 21t-20.5 50zM329 628q0 30 20.5 51.5t49.5 21.5q30 0 51 -21.5t21 -51.5q0 -29 -20.5 -50t-49.5 -21q-30 0 -51 21t-21 50z" />
<glyph unicode="&#x131;" horiz-adv-x="268" d="M237 0h-207q30 23 38 46q4 12 4 51v302q0 51 -6.5 69t-34.5 46q30 -3 60 -3q38 0 105 21v-435l1 -23q0 -15 4 -26q6 -25 36 -48z" />
<glyph unicode="&#x152;" horiz-adv-x="973" d="M962 152l-53 -152h-294l-81 -4l-66 -11q-36 -6 -69 -6q-157 0 -263.5 109t-106.5 270q0 169 111.5 273.5t293.5 104.5q22 0 45 -3l66 -11l86 -1h241v-151q-33 37 -43 44q-19 12 -70 12h-133v-195h182v-129l-9 9q-20 20 -24 22q-22 14 -71 14h-79v-249q73 -12 117 -12 q17 0 55 4q50 4 82 16.5t83 45.5zM484 80q9 11 9 79v404q0 46 -2.5 58t-13.5 22q-16 13 -62 13q-110 0 -180.5 -77t-70.5 -198q0 -126 80 -221.5t184 -95.5q46 0 56 16z" />
<glyph unicode="&#x153;" horiz-adv-x="1026" d="M552 432q57 56 96.5 74t103.5 18q116 0 186 -76q32 -35 46 -78q14 -48 14 -122h-380q14 -89 65 -135t135 -46q87 0 183 61l-78 -128q-57 -19 -128 -19q-85 0 -150 27q-31 13 -50.5 27.5t-47.5 45.5q-38 -38 -62 -55t-61 -29q-57 -20 -117 -20q-99 0 -172 53 q-49 37 -79.5 98.5t-30.5 125.5q0 119 84.5 198.5t210.5 79.5q48 0 98 -14q52 -14 77 -30t57 -56zM152 266q0 -15 2 -23q6 -80 53.5 -131t117.5 -51q71 0 115 53t44 138q0 83 -49.5 141t-120.5 58q-73 0 -117.5 -51t-44.5 -134zM750 450q-48 0 -81.5 -31t-43.5 -83h242 q-7 51 -39 82.5t-78 31.5z" />
<glyph unicode="&#x160;" horiz-adv-x="530" d="M43 11l-40 150q57 -39 116 -58q69 -23 120 -23q61 0 100.5 29.5t39.5 74.5q0 39 -34 64q-41 31 -102 56l-88 37q-64 27 -100.5 75t-36.5 106q0 94 76 151t201 57q30 0 47 -2q41 -4 99 -19v-133q-22 17 -51 36q-46 27 -108 27q-58 0 -95.5 -26t-37.5 -67q0 -35 29 -61 t101 -56q18 -7 39 -15.5t31.5 -13t14.5 -6.5q35 -16 73 -45q73 -57 73 -138q0 -99 -83.5 -163t-211.5 -64q-43 0 -77 5q-46 6 -95 22zM195 782l-74 160h75l79 -118l79 119h75l-73 -161h-161z" />
<glyph unicode="&#x161;" horiz-adv-x="461" d="M57 2l-49 126q39 -25 61 -34q78 -35 154 -35q49 0 77 18t28 49q0 33 -29 51q-20 12 -84 31q-69 21 -88.5 29.5t-46.5 28.5q-48 38 -48 97q0 74 59 115.5t164 41.5q45 0 116 -13v-101q-43 23 -76 32q-30 8 -55 8q-89 0 -89 -54q0 -27 25 -44q17 -13 77 -29 q75 -20 104.5 -34.5t54.5 -42.5q29 -32 29 -86q0 -77 -57.5 -126t-147.5 -49q-58 0 -98 7l-56 11zM160 558l-74 160h75l79 -118l79 119h75l-73 -161h-161z" />
<glyph unicode="&#x178;" horiz-adv-x="581" d="M-65 721h203l186 -308l143 217q13 20 13 41q0 20 -29 50h194l-274 -411v-222q0 -28 11 -47t40 -41h-236q28 21 40 43q1 2 2.5 6.5l3 9t2.5 8.5q3 13 3 21l2 223l-208 319q-19 29 -36 45q-24 20 -60 46zM134 852q0 30 21 51.5t51 21.5q29 0 50 -21.5t21 -51.5 q0 -29 -21.5 -50t-51.5 -21q-29 0 -49.5 21t-20.5 50zM344 852q0 30 20.5 51.5t49.5 21.5q30 0 51 -21.5t21 -51.5q0 -29 -20.5 -50t-49.5 -21q-30 0 -51 21t-21 50z" />
<glyph unicode="&#x17d;" horiz-adv-x="656" d="M589 0h-603l410 624q-71 6 -117 6q-52 0 -76 -3q-50 -6 -81.5 -15t-81.5 -33l62 142h511l-410 -630q92 -9 157 -9q48 0 71 2q58 4 103 16.5t119 46.5zM268 782l-74 160h75l79 -118l79 119h75l-73 -161h-161z" />
<glyph unicode="&#x17e;" horiz-adv-x="535" d="M478 0h-489l316 430q-52 2 -54 2q-130 0 -228 -43l66 122h423l-315 -430q72 -6 119 -6q70 0 119 10q59 11 111 40zM217 558l-74 160h75l79 -118l79 119h75l-73 -161h-161z" />
<glyph unicode="&#x192;" horiz-adv-x="521" d="M-114 -198l95 90q31 -21 56 -21q32 0 53.5 27.5t27.5 75.5l57 464h-49l58 70q5 50 16.5 76.5t40.5 56.5q76 77 204 77q35 0 94 -9l-95 -93q-24 23 -52 23q-46 0 -64 -43q-12 -31 -20 -87h135l-14 -112q-8 17 -23 26q-18 13 -61 13h-46l-54 -437q-12 -97 -81.5 -152 t-180.5 -55q-28 0 -97 10z" />
<glyph unicode="&#x2c6;" horiz-adv-x="307" d="M76 556h-76l74 161h161l73 -160h-74l-78 117z" />
<glyph unicode="&#x2c7;" horiz-adv-x="310" d="M75 558l-74 160h75l79 -118l79 119h75l-73 -161h-161z" />
<glyph unicode="&#x2d8;" horiz-adv-x="311" d="M3 717h75q23 -42 45 -67t34 -25q25 0 79 93h75q-23 -87 -59.5 -127t-91.5 -40q-59 0 -95.5 38.5t-61.5 127.5z" />
<glyph unicode="&#x2d9;" horiz-adv-x="152" d="M0 638q-1 32 22 55.5t55 23.5q31 0 53.5 -23.5t22.5 -55.5q0 -30 -23 -52t-55 -22q-31 0 -53 22t-22 52z" />
<glyph unicode="&#x2da;" horiz-adv-x="210" d="M21 668q0 35 24.5 59t59.5 24t59 -24t24 -59t-24.5 -59.5t-58.5 -24.5q-35 0 -59.5 24.5t-24.5 59.5zM104 711q-18 0 -30.5 -12.5t-12.5 -30.5t12.5 -30.5t30.5 -12.5t30 12.5t12 30.5t-12 30.5t-30 12.5z" />
<glyph unicode="&#x2db;" horiz-adv-x="216" d="M29 69q0 32 23 55t55 23q33 0 56.5 -22.5t23.5 -54.5q0 -33 -23.5 -56.5t-55.5 -23.5t-55.5 23.5t-23.5 55.5z" />
<glyph unicode="&#x2dc;" horiz-adv-x="310" d="M0 558l25 93q39 20 77 20q32 0 61 -9l22 -7q2 -1 17 -3q18 -2 20 -2q11 0 32 6q28 10 56 29l-26 -94q-43 -23 -81 -23q-26 0 -80 13q-21 5 -33 5q-19 0 -42 -5q-25 -6 -48 -23z" />
<glyph unicode="&#x2dd;" horiz-adv-x="235" d="M128 558h-77l74 161h112z" />
<glyph unicode="&#x3c0;" horiz-adv-x="594" d="M414 372q-6 0 -10 1q0 -2 -0.5 -10t-0.5 -14q-3 -71 -3 -150v-40q0 -84 8 -104q9 -22 31 -22q26 -1 41 29q14 28 17 89h25v-5q0 -80 -26 -118t-80 -38q-57 -1 -80 39q-23 39 -23 165q0 35 1 78q2 64 3 104q-28 0 -50 1q-15 0 -77 2q0 -234 -23 -310q-22 -78 -80 -79 q-35 0 -53 29q-17 29 -17 86v19h24q2 -29 10 -40q9 -12 27 -12q42 0 58 62q17 63 20 245h-22q-38 0 -60 -13q-21 -14 -27 -40h-23q3 67 38 96q34 27 121 27q17 0 102 -3q84 -3 152 -3q34 0 49 7q16 7 17 21v1h23v-3q0 -50 -24 -74q-21 -21 -74 -23h-14z" />
<glyph unicode="&#x2013;" d="M576 309h-505v101h505v-101z" />
<glyph unicode="&#x2014;" horiz-adv-x="996" d="M966 331h-936v74h936v-74z" />
<glyph unicode="&#x2018;" horiz-adv-x="215" d="M150 730l26 -23q-30 -26 -45 -55q-10 -20 -10 -42v-10q36 -14 50.5 -30t14.5 -41q0 -35 -24 -60t-58 -25q-35 0 -55.5 26t-20.5 69q0 47 29 95q13 21 32 41q18 21 61 55z" />
<glyph unicode="&#x2019;" horiz-adv-x="215" d="M64 444l-25 24q31 28 44 54q11 23 11 42v10q-37 15 -51 30.5t-14 41.5q0 35 24 60t58 25t55 -26t21 -70q0 -47 -29 -93q-16 -26 -32 -43q-27 -28 -62 -55z" />
<glyph unicode="&#x201a;" horiz-adv-x="215" d="M64 -135l-25 23q33 28 44 55q11 20 11 41v11q-37 14 -51 30t-14 42q0 34 24 58.5t58 24.5t55 -26t21 -70q0 -47 -29 -93q-11 -18 -32 -41q-19 -22 -62 -55z" />
<glyph unicode="&#x201c;" horiz-adv-x="396" d="M150 730l26 -23q-30 -26 -45 -55q-10 -20 -10 -42v-10q36 -14 50.5 -30t14.5 -41q0 -35 -24 -60t-58 -25q-35 0 -55.5 26t-20.5 69q0 47 29 95q13 21 32 41q18 21 61 55zM331 730l26 -23q-32 -27 -46 -55q-9 -20 -9 -42v-10q36 -14 50 -30t14 -42q0 -35 -24 -59.5 t-58 -24.5t-54.5 26.5t-20.5 70.5q0 47 29 93q10 17 30 41q20 23 63 55z" />
<glyph unicode="&#x201d;" horiz-adv-x="396" d="M64 444l-25 24q31 28 44 54q11 23 11 42v10q-37 15 -51 30.5t-14 41.5q0 35 24 60t58 25t55 -26t21 -70q0 -47 -29 -93q-16 -26 -32 -43q-27 -28 -62 -55zM244 444l-25 24q33 29 45 54q11 21 11 42v10q-37 15 -51.5 31t-14.5 41q0 35 24.5 60t58.5 25t55 -26.5t21 -69.5 q0 -45 -30 -93q-18 -29 -31 -43q-22 -25 -63 -55z" />
<glyph unicode="&#x201e;" horiz-adv-x="396" d="M64 -135l-25 23q33 28 44 55q11 20 11 41v11q-37 14 -51 30t-14 42q0 34 24 58.5t58 24.5t55 -26t21 -70q0 -47 -29 -93q-11 -18 -32 -41q-19 -22 -62 -55zM244 -135l-25 23q30 25 45 55q11 22 11 42v10q-37 14 -51.5 30t-14.5 42q0 34 24.5 58.5t58.5 24.5t55 -26 t21 -69q0 -47 -30 -94q-13 -21 -31 -41q-19 -23 -63 -55z" />
<glyph unicode="&#x2020;" horiz-adv-x="597" d="M29 336l-7 -14l2 221l7 -17q14 -26 26.5 -33t46.5 -7h139v156q0 33 -8 46.5t-35 25.5l-16 7h231l-15 -7q-28 -13 -36 -27t-8 -46v-155l138 -1q35 0 47 7t24 33l8 17l2 -221l-7 16q-11 25 -24.5 32t-47.5 7h-140l-1 -460q0 -41 7 -56.5t34 -28.5l17 -8l-231 1l15 5 q26 12 35 28.5t9 53.5l1 465h-140q-35 0 -47.5 -6.5t-25.5 -33.5z" />
<glyph unicode="&#x2021;" horiz-adv-x="601" d="M24 22l-2 217l8 -16q12 -23 26.5 -30.5t46.5 -7.5l142 1v187h-141q-35 0 -48.5 -7t-25.5 -35l-6 -14l2 220l9 -17q12 -24 26 -31.5t46 -7.5h141v154q0 32 -7.5 44t-37.5 25l-16 7h234l-16 -8q-21 -10 -32 -21q-13 -12 -13 -47v-155h139q35 0 50.5 8t21.5 30l5 18l3 -221 l-8 16q-12 24 -20 30q-12 12 -52 12l-139 -1l-2 -186l140 -1q34 0 45.5 6.5t26.5 32.5l8 14l-4 -217l-9 15q-18 30 -27 35.5t-43 5.5h-139v-191q0 -33 9 -49t34 -24l17 -4h-233l15 5q29 10 37.5 24t8.5 51v189h-140q-35 0 -46.5 -6.5t-26.5 -35.5z" />
<glyph unicode="&#x2022;" horiz-adv-x="216" d="M29 249q0 32 23 54.5t55 22.5q33 0 56.5 -22.5t23.5 -53.5q0 -34 -23.5 -57t-55.5 -23t-55.5 23t-23.5 56z" />
<glyph unicode="&#x2026;" horiz-adv-x="996" d="M104 53q0 26 18.5 44.5t44.5 18.5t44.5 -18.5t18.5 -44.5t-18.5 -44.5t-44.5 -18.5t-44.5 18.5t-18.5 44.5zM437 53q0 26 18.5 44.5t44.5 18.5t44.5 -18.5t18.5 -44.5t-18.5 -44.5t-44.5 -18.5t-44.5 18.5t-18.5 44.5zM770 53q0 26 18.5 44.5t44.5 18.5t44.5 -18.5 t18.5 -44.5t-18.5 -44.5t-44.5 -18.5t-44.5 18.5t-18.5 44.5z" />
<glyph unicode="&#x2030;" horiz-adv-x="1089" d="M35 533q-1 3 -1 11q0 72 49 124.5t118 52.5t118 -51t49 -123t-49 -123.5t-118 -51.5q-64 0 -112.5 47t-53.5 114zM105 0h-76l585 721h76zM356 149q-1 6 -1 16q0 76 48.5 128.5t118.5 52.5q68 0 117.5 -51.5t49.5 -122.5q0 -72 -49 -123.5t-117 -51.5q-65 0 -113 43.5 t-54 108.5zM728 149q-2 6 -2 16q0 75 49 128t119 53q68 0 117.5 -51.5t49.5 -122.5q0 -72 -49 -123.5t-117 -51.5q-65 0 -113 43.5t-54 108.5zM515 302q-34 0 -54 -21.5t-25 -62.5q-2 -16 -2 -26q0 -70 26 -111.5t69 -41.5q37 0 59 29t22 78q0 71 -26 113.5t-69 42.5z M114 552v-11q0 -55 26 -89t64 -34q39 0 60.5 31t21.5 87q0 139 -88 139q-40 0 -62 -33t-22 -90zM886 302q-33 0 -53.5 -22t-24.5 -62q-3 -12 -3 -26q0 -70 26 -111.5t70 -41.5q37 0 59 29t22 78q0 72 -26 114t-70 42z" />
<glyph unicode="&#x2039;" horiz-adv-x="246" d="M143 426h82q-21 -30 -55 -81q-35 -53 -35 -88q0 -16 3 -28q8 -25 23.5 -51t61.5 -87h-98q-8 10 -24.5 29.5t-23.5 27.5q-55 64 -55 104q0 21 15 45q23 38 106 129z" />
<glyph unicode="&#x203a;" horiz-adv-x="246" d="M104 91h-82q10 16 28.5 43t26.5 38q34 51 34 89q0 15 -3 27q-8 25 -23.5 50.5t-60.5 87.5h97q13 -15 49 -57q55 -65 55 -104q0 -20 -15 -46q-18 -31 -106 -128z" />
<glyph unicode="&#x20ac;" horiz-adv-x="841" d="M135 242h-113l38 89h59v18q0 13 2 41h-99l38 89h84q38 96 114 159q120 98 309 98q60 0 149 -19v-129q-18 13 -24 16q-69 41 -161 41q-91 0 -160.5 -44.5t-100.5 -121.5h398l-38 -89h-380q-1 -8 -1 -26q0 -22 1 -33h355l-38 -89h-294q20 -45 52 -77q41 -42 103 -67.5 t125 -25.5q70 0 158 34q57 23 108 59l-86 -165q-109 -18 -181 -18q-95 0 -179 26q-88 28 -150 89.5t-88 144.5z" />
<glyph unicode="&#x2122;" horiz-adv-x="788" d="M127 670h-80v50h217v-50h-81v-310h-56v310zM308 360h-56l69 369h30l100 -228q15 -35 16 -63q1 29 16 63l100 228h30l69 -369h-56l-36 210l-2 11l-1 9q-2 19 1 35l-10 -35l-5 -13l-1 -5l-95 -220h-20l-95 220l-2 7l-4 12q-9 30 -10 34q3 -16 1 -35l-1 -9l-2 -11z" />
<glyph unicode="&#x2126;" horiz-adv-x="830" d="M470 149v-59h123q48 0 67 17q18 18 21 69h23v-176h-272v180q77 15 123 76q45 62 45 152q0 106 -58 168q-60 63 -158 63t-157 -63q-59 -62 -59 -168q0 -92 44 -152q43 -59 124 -76v-180h-272v176h23q3 -51 20 -68q18 -18 68 -18h123v59q-118 21 -183 89t-65 170 q0 121 92 194q93 73 242 73t242 -73q90 -73 92 -194q0 -100 -65 -170q-63 -66 -183 -89z" />
<glyph unicode="&#x2202;" horiz-adv-x="534" d="M313 357q28 -21 45 -70q6 22 9 59q3 36 3 89q0 85 -16 126q-15 41 -47 41q-18 0 -50 -35q-31 -34 -56 -35q-17 0 -27 9q-8 6 -10 23q0 30 29 50q30 21 73 21q77 1 124 -72q46 -74 46 -196q0 -163 -64 -272q-64 -108 -158 -108q-68 0 -110 51q-40 49 -42 137q0 82 53 144 q52 60 125 61q44 0 73 -23zM319 317q-21 32 -63 32q-52 0 -87 -60q-31 -57 -33 -161q0 -57 22 -88q21 -31 62 -31q53 0 87 61q32 61 34 154q0 58 -22 93z" />
<glyph unicode="&#x2206;" horiz-adv-x="662" d="M297 672h22l276 -672h-574zM465 45l-186 459l-187 -459h373z" />
<glyph unicode="&#x220f;" horiz-adv-x="890" d="M30 -216v40h88v880h-88v40h767v-40h-88v-880h88v-40h-264v40h84v880h-407v-880h84v-40h-264z" />
<glyph unicode="&#x2211;" horiz-adv-x="771" d="M592 729q17 -13 26 -86l15 -129h-44q-32 105 -85 144q-52 39 -169 39h-132l315 -431l-344 -394h187q122 0 172 31q51 32 83 117h45l-30 -130l-2 -7q-15 -50 -41 -74.5t-70 -24.5h-482l389 446l-375 514h460q66 0 82 -15z" />
<glyph unicode="&#x2215;" horiz-adv-x="204" d="M-41 -80l-67 24l360 858l68 -19z" />
<glyph unicode="&#x221a;" horiz-adv-x="594" d="M501 811h93v-47h-57l-290 -784h-32l-156 431l-61 -22l-12 39l138 48l125 -346z" />
<glyph unicode="&#x221e;" horiz-adv-x="771" d="M430 144q-34 29 -64 94q-33 -62 -72 -94q-38 -30 -85 -30q-64 0 -110 53q-46 54 -46 131q0 83 41 134q40 50 105 52q47 0 83 -30q35 -29 65 -94q31 62 70 93q38 31 87 31q63 0 110 -53q45 -53 45 -131q0 -83 -40 -135q-41 -51 -105 -51q-48 0 -84 30zM257 205 q30 30 73 122q-26 46 -59 69q-33 24 -76 24q-51 0 -84 -35q-31 -33 -33 -90q0 -55 30 -89q29 -34 76 -34q40 0 73 33zM453 390q-33 -36 -70 -119q24 -47 58 -70q33 -23 77 -23q51 -1 84 35q31 33 33 90q0 56 -30 89q-30 34 -80 34q-37 0 -72 -36z" />
<glyph unicode="&#x222b;" horiz-adv-x="296" d="M200 726q38 31 83 31q36 0 58 -19q21 -17 23 -48q0 -20 -13 -35q-13 -13 -36 -13q-29 -1 -44 32q-15 32 -29 32q-50 0 -57 -310q-2 -64 -3 -98q-5 -145 -16 -229q-12 -90 -31 -133q-24 -55 -62 -86q-39 -31 -82 -31q-35 0 -58 19q-21 17 -23 48q0 22 13 35q12 12 36 12 q29 0 44 -31t30 -32q47 0 57 324q0 14 0.5 43.5t1.5 40.5q5 140 15 227q12 88 32 135q24 55 61 86z" />
<glyph unicode="&#x2248;" horiz-adv-x="594" d="M102 153q-33 -14 -87 -53v77q49 31 86 44q39 14 75 14q41 1 115 -24q65 -22 99 -24q28 0 61 15q34 15 83 52v-78q-42 -28 -78 -42q-29 -11 -71 -13q-32 0 -104 24q-72 23 -116 23q-29 0 -63 -15zM104 273q-31 -13 -89 -54v77q48 31 84 43q40 14 76 14q47 0 116 -23 q75 -24 99 -24q27 0 61 14q32 15 83 52v-77q-41 -28 -79 -42q-33 -13 -70 -13q-33 0 -104 24q-72 23 -111 23q-35 0 -66 -14z" />
<glyph unicode="&#x2260;" horiz-adv-x="594" d="M444 454l44 -44l-75 -74h91v-64h-149l-73 -72h222v-64h-281l-118 -118l-43 44l74 74h-91v64h150l73 72h-223v64h281z" />
<glyph unicode="&#x2264;" horiz-adv-x="594" d="M43 86h463v-68h-463v68zM506 458v-70l-344 -108l344 -107v-70l-462 145v65z" />
<glyph unicode="&#x2265;" horiz-adv-x="594" d="M43 86h463v-68h-463v68zM43 458l463 -145v-65l-463 -145v70l344 107l-344 108v70z" />
<glyph unicode="&#x25ca;" horiz-adv-x="534" d="M247 -233l-244 522l244 518l244 -518zM247 -114l188 403l-188 399l-188 -399z" />
<glyph unicode="&#xe000;" horiz-adv-x="510" d="M0 510h510v-510h-510v510z" />
<glyph unicode="&#xec00;" horiz-adv-x="301" d="M-26 628q0 30 21 51.5t51 21.5q29 0 50 -21.5t21 -51.5q0 -29 -21.5 -50t-51.5 -21q-29 0 -49.5 21t-20.5 50zM184 628q0 30 20.5 51.5t49.5 21.5q30 0 51 -21.5t21 -51.5q0 -29 -20.5 -50t-49.5 -21q-30 0 -51 21t-21 50z" />
<glyph unicode="&#xec01;" horiz-adv-x="301" d="M-26 852q0 30 21 51.5t51 21.5q29 0 50 -21.5t21 -51.5q0 -29 -21.5 -50t-51.5 -21q-29 0 -49.5 21t-20.5 50zM184 852q0 30 20.5 51.5t49.5 21.5q30 0 51 -21.5t21 -51.5q0 -29 -20.5 -50t-49.5 -21q-30 0 -51 21t-21 50z" />
<glyph unicode="&#xec04;" horiz-adv-x="841" d="M716 717v-129q-18 13 -24 16q-69 41 -161 41q-124 0 -203 -78.5t-79 -202.5q0 -121 76 -199q41 -42 103 -67.5t125 -25.5q70 0 158 34q57 23 108 59l-86 -165q-109 -18 -181 -18q-95 0 -179 26q-116 37 -185 129.5t-69 211.5q0 81 37.5 158.5t101.5 130.5q120 98 309 98 q60 0 149 -19zM630 390h-608l38 89h608zM567 242h-545l38 89h545z" />
<glyph unicode="&#xefed;" horiz-adv-x="152" d="M0 827q-1 32 22 55.5t55 23.5q31 0 53.5 -23.5t22.5 -55.5q0 -30 -23 -52t-55 -22q-31 0 -53 22t-22 52z" />
<glyph unicode="&#xefee;" horiz-adv-x="311" d="M3 906h75q23 -42 45 -67t34 -25q25 0 79 93h75q-23 -87 -59.5 -127t-91.5 -40q-59 0 -95.5 38.5t-61.5 127.5z" />
<glyph unicode="&#xeff3;" horiz-adv-x="210" d="M21 857q0 35 24.5 59t59.5 24t59 -24t24 -59t-24.5 -59.5t-58.5 -24.5q-35 0 -59.5 24.5t-24.5 59.5zM104 900q-18 0 -30.5 -12.5t-12.5 -30.5t12.5 -30.5t30.5 -12.5t30 12.5t12 30.5t-12 30.5t-30 12.5z" />
<glyph unicode="&#xeff5;" horiz-adv-x="310" d="M0 782l25 93q39 20 77 20q32 0 61 -9l22 -7q2 -1 17 -3q18 -2 20 -2q11 0 32 6q28 10 56 29l-26 -94q-43 -23 -81 -23q-26 0 -80 13q-21 5 -33 5q-19 0 -42 -5q-25 -6 -48 -23z" />
<glyph unicode="&#xeff7;" horiz-adv-x="307" d="M76 780h-76l74 161h161l73 -160h-74l-78 117z" />
<glyph unicode="&#xf6c9;" horiz-adv-x="235" d="M128 782h-77l74 161h112z" />
<glyph unicode="&#xf6ca;" horiz-adv-x="310" d="M75 782l-74 160h75l79 -118l79 119h75l-73 -161h-161z" />
<glyph unicode="&#xf6cb;" horiz-adv-x="314" d="M-26 812q0 30 21 50.5t52 20.5q29 0 50 -20.5t21 -50.5q0 -29 -21 -49.5t-50 -20.5q-31 0 -52 20.5t-21 49.5zM195 812q0 30 21 50.5t50 20.5q31 0 52 -20.5t21 -49.5q0 -30 -21 -50.5t-51 -20.5t-51 20.5t-21 49.5z" />
<glyph unicode="&#xf6ce;" horiz-adv-x="230" d="M105 782l-107 160h108l73 -160h-74z" />
<glyph unicode="&#xf6cf;" horiz-adv-x="235" d="M128 747h-77l74 161h112z" />
<glyph unicode="&#xf6d0;" horiz-adv-x="341" d="M330 761h-318v92h318v-92z" />
<glyph unicode="&#xf6dc;" horiz-adv-x="369" d="M138 562h-106q93 49 133 80t106 105v-659q0 -21 11 -45q13 -22 42 -43h-238q32 24 42 43q10 20 10 42v477z" />
<glyph unicode="&#xf8ff;" horiz-adv-x="854" d="M413 593q-3 0 -5 1q0 4 -1 7v11q0 61 47 112q45 51 115 64v-12q0 -9 1 -18q0 -64 -51 -115q-50 -50 -99 -50h-4h-3zM650 264q29 -43 85 -67q-57 -124 -100 -168q-46 -46 -100 -46q-25 0 -64 16t-60 16q-23 0 -64 -16t-62 -16q-34 0 -63 21q-28 18 -63 65q-47 65 -77 144 q-27 77 -27 147q-1 105 61 174q62 68 158 68q35 0 76 -17q43 -17 60 -17q18 0 59 17q45 17 75 17q55 0 97 -19q43 -20 78 -61q-49 -31 -74 -71q-24 -39 -24 -89q-1 -54 29 -98z" />
<glyph horiz-adv-x="743" d="M721 581l-29 -61q-38 47 -97.5 74.5t-132.5 27.5q-92 0 -162 -53.5t-94 -136.5h445l-30 -63h-429q-2 -26 -2 -33q0 -8 2 -30h400l-30 -63h-356q27 -89 98 -140.5t168 -51.5q66 0 124 26.5t96 72.5v-85q-41 -33 -101 -55t-124 -22q-122 0 -213.5 69t-118.5 186h-113l30 63 h71q-1 13 -1 31q0 19 1 32h-101l30 63h83q27 117 119.5 185t217.5 68q72 0 140.5 -28t108.5 -76z" />
<glyph horiz-adv-x="758" />
<glyph horiz-adv-x="290" />
<glyph horiz-adv-x="306" d="M214 764l-214 126l65 73l192 -151z" />
</font>
</defs>
</svg>
